<svg xmlns="http://www.w3.org/2000/svg" xmlns:xlink="http://www.w3.org/1999/xlink" width="1920" zoomAndPan="magnify" viewBox="0 0 1440 809.999993" height="1080" preserveAspectRatio="xMidYMid meet" version="1.0"><defs><clipPath id="f2b431652e"><path d="M 532.5 183 L 907.5 183 L 907.5 392 L 532.5 392 Z M 532.5 183 " clip-rule="nonzero"/></clipPath></defs><path fill="#ff914d" d="M 673.136719 255.113281 C 656.171875 255.113281 642.363281 268.925781 642.363281 285.902344 C 642.363281 302.875 656.171875 316.6875 673.136719 316.6875 C 690.105469 316.6875 703.910156 302.875 703.910156 285.902344 C 703.910156 268.925781 690.105469 255.113281 673.136719 255.113281 Z M 673.136719 303.679688 C 663.339844 303.679688 655.371094 295.699219 655.371094 285.898438 C 655.371094 276.09375 663.339844 268.121094 673.136719 268.121094 C 682.9375 268.121094 690.90625 276.09375 690.90625 285.898438 C 690.90625 295.699219 682.9375 303.679688 673.136719 303.679688 " fill-opacity="1" fill-rule="nonzero"/><path fill="#ff914d" d="M 766.863281 255.113281 C 749.898438 255.113281 736.09375 268.925781 736.09375 285.902344 C 736.09375 302.875 749.898438 316.6875 766.863281 316.6875 C 783.832031 316.6875 797.640625 302.875 797.640625 285.902344 C 797.640625 268.925781 783.832031 255.113281 766.863281 255.113281 Z M 766.863281 303.679688 C 757.066406 303.679688 749.097656 295.699219 749.097656 285.898438 C 749.097656 276.09375 757.066406 268.121094 766.863281 268.121094 C 776.667969 268.121094 784.636719 276.09375 784.636719 285.898438 C 784.636719 295.699219 776.664062 303.679688 766.863281 303.679688 " fill-opacity="1" fill-rule="nonzero"/><path fill="#ff914d" d="M 837.183594 512.675781 C 833.617188 512.183594 830.34375 514.679688 829.859375 518.238281 C 822.386719 572.824219 775.160156 613.992188 720.003906 613.992188 C 639.691406 613.992188 585.820312 530.644531 618.84375 457.4375 C 635.941406 463.058594 656.292969 467.089844 678.484375 469.316406 C 680.1875 473.070312 679.574219 471.945312 708.046875 500.4375 C 714.640625 507.027344 725.363281 507.03125 731.957031 500.4375 C 760.429688 471.945312 759.820312 473.070312 761.523438 469.316406 C 783.683594 467.09375 804.003906 463.074219 821.089844 457.457031 C 825.671875 467.601562 828.730469 478.425781 830.078125 489.550781 C 830.511719 493.121094 833.769531 495.65625 837.3125 495.226562 C 840.878906 494.792969 843.417969 491.550781 842.984375 487.988281 C 839.753906 461.296875 827.566406 435.070312 806.914062 414.722656 C 791.074219 396.652344 648.546875 397.011719 633.078125 414.742188 C 609.488281 437.980469 596.109375 469.214844 596.109375 503.042969 C 596.109375 571.394531 651.6875 627 720.003906 627 C 750.132812 627 779.171875 616.050781 801.777344 596.167969 C 824.167969 576.46875 838.71875 549.417969 842.738281 520.003906 C 843.226562 516.445312 840.734375 513.164062 837.183594 512.675781 Z M 720.003906 492.367188 C 717.785156 492.367188 718.84375 492.835938 696.804688 470.792969 C 712.109375 471.625 727.894531 471.625 743.195312 470.792969 C 721.167969 492.824219 722.226562 492.367188 720.003906 492.367188 Z M 790.292969 420.609375 C 759.929688 428.695312 681.289062 429.027344 649.710938 420.609375 C 680.867188 412.324219 759.117188 412.316406 790.292969 420.609375 Z M 636.957031 429.527344 C 661.445312 443.519531 779.566406 442.980469 803.042969 429.53125 C 807.429688 434.5 811.460938 439.988281 814.945312 445.765625 C 761.589844 462.503906 678.410156 462.511719 625.027344 445.753906 C 628.507812 439.992188 632.492188 434.570312 636.957031 429.527344 " fill-opacity="1" fill-rule="nonzero"/><g clip-path="url(#f2b431652e)"><path fill="#ff914d" d="M 890.382812 248.460938 L 868.886719 248.460938 C 853.476562 210.132812 815.933594 183 772.175781 183 L 667.832031 183 C 624.066406 183 586.53125 210.132812 571.117188 248.460938 L 549.621094 248.460938 C 540.300781 248.460938 532.71875 256.050781 532.71875 265.375 L 532.71875 306.425781 C 532.71875 315.75 540.300781 323.335938 549.621094 323.335938 L 570.082031 323.335938 C 584.789062 363.078125 623.050781 391.480469 667.828125 391.480469 L 772.175781 391.480469 C 816.949219 391.480469 855.214844 363.078125 869.921875 323.335938 L 890.382812 323.335938 C 899.699219 323.335938 907.285156 315.75 907.285156 306.425781 L 907.285156 265.375 C 907.285156 256.046875 899.699219 248.460938 890.382812 248.460938 Z M 566.214844 310.328125 L 549.621094 310.328125 C 547.507812 310.328125 545.722656 308.539062 545.722656 306.421875 L 545.722656 265.375 C 545.722656 263.261719 547.507812 261.46875 549.621094 261.46875 L 566.859375 261.46875 C 562.816406 277.316406 562.566406 294.230469 566.214844 310.328125 Z M 863.277344 291.097656 C 861.230469 339.570312 821.230469 378.472656 772.175781 378.472656 L 667.832031 378.472656 C 627.3125 378.472656 592.894531 351.898438 581.046875 315.261719 C 581.011719 315.125 580.984375 314.984375 580.941406 314.847656 C 562.285156 256.527344 605.957031 196.007812 667.832031 196.007812 L 772.175781 196.007812 C 824.191406 196.007812 865.429688 239.558594 863.277344 291.097656 Z M 894.28125 306.421875 C 894.28125 308.539062 892.496094 310.328125 890.382812 310.328125 L 873.789062 310.328125 C 877.410156 294.34375 877.214844 277.4375 873.144531 261.46875 L 890.382812 261.46875 C 892.492188 261.46875 894.28125 263.261719 894.28125 265.375 L 894.28125 306.421875 " fill-opacity="1" fill-rule="nonzero"/></g><path fill="#ff914d" d="M 767.847656 212.222656 L 735.171875 212.222656 C 731.582031 212.222656 728.671875 215.132812 728.671875 218.726562 C 728.671875 222.316406 731.582031 225.230469 735.171875 225.230469 L 767.847656 225.230469 C 802.023438 225.230469 829.824219 253.042969 829.824219 287.238281 C 829.824219 321.429688 802.023438 349.246094 767.847656 349.246094 L 672.15625 349.246094 C 637.980469 349.246094 610.179688 321.429688 610.179688 287.238281 C 610.179688 253.046875 637.980469 225.230469 672.15625 225.230469 L 704.832031 225.230469 C 708.421875 225.230469 711.332031 222.316406 711.332031 218.726562 C 711.332031 215.132812 708.421875 212.222656 704.832031 212.222656 L 672.15625 212.222656 C 630.8125 212.222656 597.171875 245.875 597.171875 287.238281 C 597.171875 328.605469 630.8125 362.257812 672.15625 362.257812 L 767.847656 362.257812 C 809.191406 362.257812 842.828125 328.605469 842.828125 287.238281 C 842.828125 245.875 809.191406 212.222656 767.847656 212.222656 " fill-opacity="1" fill-rule="nonzero"/></svg>