<svg xmlns="http://www.w3.org/2000/svg" xmlns:xlink="http://www.w3.org/1999/xlink" width="348" zoomAndPan="magnify" viewBox="0 0 261 221.999995" height="296" preserveAspectRatio="xMidYMid meet" version="1.0"><defs><g/><clipPath id="fe13d62e7a"><path d="M 117 112 L 123 112 L 123 117.589844 L 117 117.589844 Z M 117 112 " clip-rule="nonzero"/></clipPath><clipPath id="a9ade6881b"><path d="M 117 75.0625 L 123 75.0625 L 123 81 L 117 81 Z M 117 75.0625 " clip-rule="nonzero"/></clipPath><clipPath id="e2232bc9cb"><path d="M 128 75.0625 L 135 75.0625 L 135 81 L 128 81 Z M 128 75.0625 " clip-rule="nonzero"/></clipPath><clipPath id="244eafa285"><path d="M 104.4375 87 L 110 87 L 110 94 L 104.4375 94 Z M 104.4375 87 " clip-rule="nonzero"/></clipPath><clipPath id="375351d751"><path d="M 141 87 L 146.964844 87 L 146.964844 94 L 141 94 Z M 141 87 " clip-rule="nonzero"/></clipPath><clipPath id="b0e34ebbbd"><path d="M 141 99 L 146.964844 99 L 146.964844 105 L 141 105 Z M 141 99 " clip-rule="nonzero"/></clipPath></defs><path fill="#ffffff" d="M 132.332031 107.476562 C 132.320312 107.476562 132.304688 107.476562 132.292969 107.476562 L 130.871094 107.476562 L 130.871094 109.308594 C 131.101562 109.242188 131.347656 109.207031 131.601562 109.207031 C 131.855469 109.207031 132.097656 109.242188 132.332031 109.308594 L 132.332031 107.476562 " fill-opacity="1" fill-rule="nonzero"/><path fill="#ffffff" d="M 131.601562 109.207031 C 131.347656 109.207031 131.101562 109.242188 130.871094 109.308594 C 130.40625 109.433594 129.992188 109.683594 129.664062 110.011719 C 129.167969 110.503906 128.859375 111.195312 128.863281 111.949219 L 130.324219 111.949219 C 130.324219 111.59375 130.464844 111.277344 130.699219 111.046875 C 130.929688 110.8125 131.246094 110.671875 131.601562 110.671875 C 131.957031 110.671875 132.269531 110.8125 132.503906 111.046875 C 132.738281 111.277344 132.878906 111.59375 132.878906 111.949219 C 132.878906 112.304688 132.738281 112.617188 132.503906 112.851562 C 132.269531 113.082031 131.957031 113.226562 131.601562 113.226562 C 131.246094 113.226562 130.929688 113.082031 130.699219 112.851562 C 130.464844 112.617188 130.324219 112.304688 130.324219 111.949219 L 128.863281 111.949219 C 128.859375 112.703125 129.167969 113.390625 129.664062 113.886719 C 130.15625 114.378906 130.847656 114.6875 131.601562 114.6875 C 132.355469 114.6875 133.042969 114.378906 133.539062 113.886719 C 134.03125 113.390625 134.339844 112.703125 134.339844 111.949219 C 134.339844 111.195312 134.03125 110.503906 133.539062 110.011719 C 133.210938 109.683594 132.796875 109.4375 132.332031 109.308594 C 132.097656 109.242188 131.855469 109.207031 131.601562 109.207031 " fill-opacity="1" fill-rule="nonzero"/><path fill="#ffffff" d="M 119.074219 107.476562 L 119.074219 112.207031 C 119.304688 112.144531 119.550781 112.109375 119.804688 112.109375 C 120.058594 112.109375 120.300781 112.144531 120.535156 112.207031 L 120.535156 107.476562 L 119.113281 107.476562 C 119.097656 107.476562 119.085938 107.476562 119.074219 107.476562 " fill-opacity="1" fill-rule="nonzero"/><g clip-path="url(#fe13d62e7a)"><path fill="#ffffff" d="M 119.804688 112.109375 C 119.550781 112.109375 119.304688 112.144531 119.074219 112.207031 C 118.609375 112.335938 118.195312 112.582031 117.867188 112.910156 C 117.371094 113.40625 117.0625 114.09375 117.066406 114.847656 L 118.527344 114.847656 C 118.527344 114.492188 118.667969 114.179688 118.902344 113.945312 C 119.136719 113.714844 119.449219 113.570312 119.804688 113.570312 C 120.160156 113.570312 120.472656 113.714844 120.707031 113.945312 C 120.941406 114.179688 121.082031 114.492188 121.082031 114.847656 C 121.082031 115.203125 120.941406 115.519531 120.707031 115.75 C 120.472656 115.984375 120.160156 116.125 119.804688 116.125 C 119.449219 116.125 119.136719 115.984375 118.902344 115.75 C 118.667969 115.519531 118.527344 115.203125 118.527344 114.847656 L 117.066406 114.847656 C 117.0625 115.601562 117.371094 116.292969 117.867188 116.785156 C 118.359375 117.28125 119.050781 117.589844 119.804688 117.589844 C 120.558594 117.589844 121.25 117.28125 121.742188 116.785156 C 122.234375 116.292969 122.542969 115.601562 122.542969 114.847656 C 122.542969 114.09375 122.234375 113.40625 121.742188 112.910156 C 121.414062 112.582031 121 112.335938 120.535156 112.207031 C 120.300781 112.144531 120.058594 112.109375 119.804688 112.109375 " fill-opacity="1" fill-rule="nonzero"/></g><path fill="#ffffff" d="M 126.433594 107.476562 L 124.972656 107.476562 L 124.972656 111.316406 C 125.203125 111.25 125.449219 111.21875 125.703125 111.21875 C 125.957031 111.21875 126.203125 111.25 126.433594 111.316406 L 126.433594 107.476562 " fill-opacity="1" fill-rule="nonzero"/><path fill="#ffffff" d="M 125.703125 111.21875 C 125.449219 111.21875 125.203125 111.25 124.972656 111.316406 C 124.507812 111.445312 124.09375 111.691406 123.765625 112.019531 C 123.269531 112.511719 122.960938 113.203125 122.964844 113.957031 L 124.425781 113.957031 C 124.425781 113.601562 124.566406 113.285156 124.800781 113.054688 C 125.03125 112.820312 125.347656 112.679688 125.703125 112.679688 C 126.058594 112.679688 126.371094 112.820312 126.605469 113.054688 C 126.839844 113.285156 126.980469 113.601562 126.980469 113.957031 C 126.980469 114.3125 126.839844 114.625 126.605469 114.859375 C 126.371094 115.09375 126.058594 115.234375 125.703125 115.234375 C 125.347656 115.234375 125.03125 115.09375 124.800781 114.859375 C 124.566406 114.625 124.425781 114.3125 124.425781 113.957031 L 122.964844 113.957031 C 122.960938 114.710938 123.269531 115.402344 123.765625 115.894531 C 124.257812 116.386719 124.949219 116.695312 125.699219 116.695312 C 125.703125 116.695312 125.703125 116.695312 125.703125 116.695312 C 126.457031 116.695312 127.144531 116.386719 127.640625 115.894531 C 128.132812 115.398438 128.441406 114.710938 128.441406 113.957031 C 128.441406 113.203125 128.132812 112.511719 127.640625 112.019531 C 127.3125 111.691406 126.898438 111.445312 126.433594 111.316406 C 126.203125 111.25 125.957031 111.21875 125.703125 111.21875 " fill-opacity="1" fill-rule="nonzero"/><path fill="#ffffff" d="M 119.074219 80.441406 L 119.074219 85.171875 C 119.085938 85.171875 119.101562 85.171875 119.113281 85.171875 L 120.535156 85.171875 L 120.535156 80.441406 C 120.300781 80.507812 120.058594 80.539062 119.804688 80.539062 C 119.550781 80.539062 119.304688 80.507812 119.074219 80.441406 " fill-opacity="1" fill-rule="nonzero"/><g clip-path="url(#a9ade6881b)"><path fill="#ffffff" d="M 119.804688 75.0625 C 119.050781 75.0625 118.359375 75.371094 117.867188 75.863281 C 117.371094 76.355469 117.0625 77.046875 117.066406 77.800781 C 117.0625 78.554688 117.371094 79.246094 117.867188 79.738281 C 118.195312 80.066406 118.609375 80.3125 119.074219 80.441406 C 119.304688 80.507812 119.550781 80.539062 119.804688 80.539062 C 120.058594 80.539062 120.300781 80.507812 120.535156 80.441406 C 121 80.3125 121.414062 80.066406 121.742188 79.738281 C 122.234375 79.246094 122.542969 78.554688 122.542969 77.800781 L 121.082031 77.800781 C 121.082031 78.15625 120.941406 78.472656 120.707031 78.703125 C 120.472656 78.9375 120.160156 79.078125 119.804688 79.078125 C 119.449219 79.078125 119.132812 78.9375 118.902344 78.703125 C 118.667969 78.472656 118.527344 78.15625 118.527344 77.800781 C 118.527344 77.445312 118.667969 77.132812 118.902344 76.898438 C 119.132812 76.664062 119.449219 76.523438 119.804688 76.523438 C 120.160156 76.523438 120.472656 76.664062 120.707031 76.898438 C 120.941406 77.132812 121.082031 77.445312 121.082031 77.800781 L 122.542969 77.800781 C 122.542969 77.046875 122.234375 76.355469 121.742188 75.863281 C 121.25 75.371094 120.558594 75.0625 119.804688 75.0625 " fill-opacity="1" fill-rule="nonzero"/></g><path fill="#ffffff" d="M 130.871094 80.441406 L 130.871094 85.171875 L 132.292969 85.171875 C 132.304688 85.171875 132.320312 85.171875 132.332031 85.171875 L 132.332031 80.441406 C 132.097656 80.507812 131.855469 80.539062 131.601562 80.539062 C 131.347656 80.539062 131.101562 80.507812 130.871094 80.441406 " fill-opacity="1" fill-rule="nonzero"/><g clip-path="url(#e2232bc9cb)"><path fill="#ffffff" d="M 131.601562 75.0625 C 130.847656 75.0625 130.15625 75.371094 129.664062 75.863281 C 129.167969 76.355469 128.859375 77.046875 128.863281 77.800781 C 128.859375 78.554688 129.167969 79.246094 129.664062 79.738281 C 129.992188 80.066406 130.40625 80.3125 130.871094 80.441406 C 131.101562 80.507812 131.347656 80.539062 131.601562 80.539062 C 131.855469 80.539062 132.097656 80.507812 132.332031 80.441406 C 132.796875 80.3125 133.210938 80.066406 133.539062 79.738281 C 134.03125 79.246094 134.339844 78.554688 134.339844 77.800781 L 132.878906 77.800781 C 132.878906 78.15625 132.738281 78.472656 132.503906 78.703125 C 132.269531 78.9375 131.957031 79.078125 131.601562 79.078125 C 131.246094 79.078125 130.929688 78.9375 130.699219 78.703125 C 130.464844 78.472656 130.324219 78.15625 130.324219 77.800781 C 130.324219 77.445312 130.464844 77.132812 130.699219 76.898438 C 130.929688 76.664062 131.246094 76.523438 131.601562 76.523438 C 131.957031 76.523438 132.269531 76.664062 132.503906 76.898438 C 132.738281 77.132812 132.878906 77.445312 132.878906 77.800781 L 134.339844 77.800781 C 134.339844 77.046875 134.03125 76.355469 133.539062 75.863281 C 133.046875 75.371094 132.355469 75.0625 131.601562 75.0625 " fill-opacity="1" fill-rule="nonzero"/></g><path fill="#ffffff" d="M 126.433594 83.34375 C 126.199219 83.40625 125.957031 83.441406 125.703125 83.441406 C 125.449219 83.441406 125.203125 83.40625 124.972656 83.34375 L 124.972656 85.171875 L 126.433594 85.171875 L 126.433594 83.34375 " fill-opacity="1" fill-rule="nonzero"/><path fill="#ffffff" d="M 125.703125 77.960938 C 124.949219 77.960938 124.257812 78.269531 123.765625 78.765625 C 123.269531 79.257812 122.960938 79.949219 122.964844 80.703125 C 122.960938 81.457031 123.269531 82.144531 123.765625 82.640625 C 124.09375 82.96875 124.507812 83.214844 124.972656 83.34375 C 125.203125 83.40625 125.449219 83.441406 125.699219 83.441406 C 125.703125 83.441406 125.703125 83.441406 125.703125 83.441406 C 125.957031 83.441406 126.199219 83.40625 126.433594 83.34375 C 126.898438 83.214844 127.3125 82.96875 127.640625 82.640625 C 128.132812 82.144531 128.441406 81.457031 128.441406 80.703125 L 126.980469 80.703125 C 126.980469 81.054688 126.835938 81.371094 126.605469 81.605469 C 126.371094 81.835938 126.058594 81.976562 125.703125 81.980469 C 125.347656 81.976562 125.03125 81.835938 124.800781 81.605469 C 124.566406 81.371094 124.425781 81.054688 124.425781 80.703125 C 124.425781 80.347656 124.566406 80.03125 124.800781 79.796875 C 125.03125 79.566406 125.347656 79.425781 125.703125 79.425781 C 126.058594 79.425781 126.371094 79.566406 126.605469 79.796875 C 126.835938 80.03125 126.980469 80.347656 126.980469 80.703125 L 128.441406 80.703125 C 128.441406 79.945312 128.132812 79.257812 127.640625 78.765625 C 127.148438 78.269531 126.457031 77.960938 125.703125 77.960938 " fill-opacity="1" fill-rule="nonzero"/><path fill="#ffffff" d="M 114.550781 101.492188 L 112.71875 101.492188 C 112.785156 101.726562 112.820312 101.96875 112.820312 102.222656 C 112.820312 102.476562 112.785156 102.722656 112.71875 102.953125 L 114.550781 102.953125 C 114.550781 102.941406 114.550781 102.929688 114.550781 102.914062 L 114.550781 101.492188 " fill-opacity="1" fill-rule="nonzero"/><path fill="#ffffff" d="M 110.078125 103.5 C 109.722656 103.5 109.410156 103.359375 109.175781 103.125 C 108.945312 102.894531 108.800781 102.578125 108.800781 102.222656 C 108.800781 101.867188 108.945312 101.554688 109.175781 101.320312 C 109.410156 101.089844 109.722656 100.945312 110.078125 100.945312 C 110.433594 100.945312 110.75 101.085938 110.984375 101.320312 C 111.214844 101.554688 111.355469 101.867188 111.355469 102.222656 C 111.355469 102.578125 111.214844 102.894531 110.984375 103.125 C 110.75 103.359375 110.433594 103.5 110.078125 103.5 M 110.082031 99.484375 C 110.082031 99.484375 110.078125 99.484375 110.078125 99.484375 C 109.324219 99.484375 108.636719 99.792969 108.140625 100.285156 C 107.648438 100.78125 107.339844 101.46875 107.339844 102.222656 C 107.339844 102.976562 107.648438 103.667969 108.140625 104.160156 C 108.636719 104.65625 109.324219 104.964844 110.078125 104.964844 C 110.832031 104.964844 111.523438 104.65625 112.015625 104.160156 C 112.34375 103.832031 112.59375 103.417969 112.71875 102.953125 C 112.785156 102.722656 112.820312 102.476562 112.820312 102.222656 C 112.820312 101.96875 112.785156 101.726562 112.71875 101.492188 C 112.59375 101.027344 112.34375 100.613281 112.015625 100.285156 C 111.523438 99.792969 110.835938 99.484375 110.082031 99.484375 " fill-opacity="1" fill-rule="nonzero"/><path fill="#ffffff" d="M 114.550781 89.695312 L 109.820312 89.695312 C 109.882812 89.929688 109.917969 90.175781 109.917969 90.425781 C 109.917969 90.679688 109.882812 90.925781 109.820312 91.15625 L 114.550781 91.15625 L 114.550781 89.734375 C 114.550781 89.722656 114.550781 89.707031 114.550781 89.695312 " fill-opacity="1" fill-rule="nonzero"/><g clip-path="url(#244eafa285)"><path fill="#ffffff" d="M 107.179688 91.703125 C 106.824219 91.703125 106.507812 91.5625 106.277344 91.328125 C 106.042969 91.097656 105.902344 90.78125 105.902344 90.425781 C 105.902344 90.070312 106.042969 89.757812 106.277344 89.523438 C 106.507812 89.292969 106.824219 89.148438 107.179688 89.148438 C 107.535156 89.148438 107.847656 89.292969 108.082031 89.523438 C 108.3125 89.757812 108.457031 90.070312 108.457031 90.425781 C 108.457031 90.78125 108.3125 91.097656 108.082031 91.328125 C 107.847656 91.5625 107.535156 91.703125 107.179688 91.703125 M 107.179688 87.6875 C 106.425781 87.6875 105.734375 87.996094 105.242188 88.488281 C 104.746094 88.984375 104.4375 89.671875 104.4375 90.425781 C 104.4375 91.179688 104.746094 91.871094 105.242188 92.363281 C 105.734375 92.859375 106.425781 93.167969 107.175781 93.167969 C 107.179688 93.167969 107.179688 93.167969 107.179688 93.167969 C 107.933594 93.167969 108.621094 92.859375 109.117188 92.363281 C 109.445312 92.035156 109.691406 91.621094 109.820312 91.15625 C 109.882812 90.925781 109.917969 90.679688 109.917969 90.425781 C 109.917969 90.175781 109.882812 89.929688 109.820312 89.695312 C 109.691406 89.234375 109.445312 88.816406 109.117188 88.488281 C 108.621094 87.996094 107.933594 87.6875 107.179688 87.6875 " fill-opacity="1" fill-rule="nonzero"/></g><path fill="#ffffff" d="M 114.550781 95.59375 L 110.710938 95.59375 C 110.777344 95.828125 110.8125 96.074219 110.8125 96.324219 C 110.8125 96.578125 110.777344 96.824219 110.710938 97.054688 L 114.550781 97.054688 L 114.550781 95.59375 " fill-opacity="1" fill-rule="nonzero"/><path fill="#ffffff" d="M 108.070312 97.601562 C 107.714844 97.601562 107.402344 97.460938 107.167969 97.226562 C 106.9375 96.996094 106.792969 96.679688 106.792969 96.324219 C 106.792969 95.96875 106.9375 95.65625 107.167969 95.421875 C 107.402344 95.191406 107.714844 95.046875 108.070312 95.046875 C 108.425781 95.046875 108.742188 95.1875 108.972656 95.421875 C 109.207031 95.65625 109.347656 95.96875 109.347656 96.324219 C 109.347656 96.679688 109.207031 96.996094 108.972656 97.226562 C 108.742188 97.460938 108.425781 97.601562 108.070312 97.601562 M 108.070312 93.585938 C 107.316406 93.585938 106.628906 93.894531 106.132812 94.386719 C 105.640625 94.882812 105.332031 95.570312 105.332031 96.324219 C 105.332031 97.078125 105.640625 97.769531 106.132812 98.261719 C 106.625 98.757812 107.316406 99.066406 108.070312 99.066406 C 108.824219 99.066406 109.515625 98.757812 110.007812 98.261719 C 110.335938 97.933594 110.582031 97.519531 110.710938 97.054688 C 110.777344 96.824219 110.8125 96.578125 110.8125 96.324219 C 110.8125 96.074219 110.777344 95.828125 110.710938 95.59375 C 110.582031 95.132812 110.335938 94.714844 110.007812 94.386719 C 109.515625 93.894531 108.824219 93.585938 108.070312 93.585938 " fill-opacity="1" fill-rule="nonzero"/><path fill="#ffffff" d="M 141.585938 89.695312 L 136.855469 89.695312 C 136.855469 89.707031 136.855469 89.722656 136.855469 89.734375 L 136.855469 91.15625 L 141.585938 91.15625 C 141.519531 90.925781 141.488281 90.679688 141.488281 90.425781 C 141.488281 90.175781 141.519531 89.929688 141.585938 89.695312 " fill-opacity="1" fill-rule="nonzero"/><g clip-path="url(#375351d751)"><path fill="#ffffff" d="M 144.226562 91.703125 C 143.871094 91.703125 143.558594 91.5625 143.324219 91.328125 C 143.089844 91.097656 142.949219 90.78125 142.949219 90.425781 C 142.949219 90.070312 143.089844 89.757812 143.324219 89.523438 C 143.558594 89.292969 143.871094 89.148438 144.226562 89.148438 C 144.582031 89.148438 144.894531 89.292969 145.128906 89.523438 C 145.363281 89.757812 145.503906 90.070312 145.503906 90.425781 C 145.503906 90.78125 145.363281 91.097656 145.128906 91.328125 C 144.894531 91.5625 144.582031 91.703125 144.226562 91.703125 M 144.226562 87.6875 C 143.472656 87.6875 142.78125 87.996094 142.289062 88.488281 C 141.960938 88.816406 141.714844 89.234375 141.585938 89.695312 C 141.519531 89.929688 141.488281 90.171875 141.488281 90.425781 C 141.488281 90.679688 141.519531 90.925781 141.585938 91.15625 C 141.714844 91.621094 141.960938 92.035156 142.289062 92.363281 C 142.78125 92.859375 143.472656 93.167969 144.226562 93.167969 C 144.980469 93.167969 145.671875 92.859375 146.164062 92.363281 C 146.660156 91.871094 146.964844 91.179688 146.964844 90.425781 C 146.964844 89.671875 146.660156 88.984375 146.164062 88.488281 C 145.671875 87.996094 144.980469 87.6875 144.226562 87.6875 " fill-opacity="1" fill-rule="nonzero"/></g><path fill="#ffffff" d="M 141.585938 101.492188 L 136.855469 101.492188 L 136.855469 102.914062 C 136.855469 102.929688 136.855469 102.941406 136.855469 102.953125 L 141.585938 102.953125 C 141.519531 102.722656 141.488281 102.476562 141.488281 102.222656 C 141.488281 101.96875 141.519531 101.726562 141.585938 101.492188 " fill-opacity="1" fill-rule="nonzero"/><g clip-path="url(#b0e34ebbbd)"><path fill="#ffffff" d="M 144.226562 103.5 C 143.871094 103.5 143.558594 103.359375 143.324219 103.125 C 143.089844 102.894531 142.949219 102.578125 142.949219 102.222656 C 142.949219 101.867188 143.089844 101.554688 143.324219 101.320312 C 143.558594 101.089844 143.871094 100.945312 144.226562 100.945312 C 144.582031 100.945312 144.894531 101.085938 145.128906 101.320312 C 145.363281 101.554688 145.503906 101.867188 145.503906 102.222656 C 145.503906 102.578125 145.363281 102.894531 145.128906 103.125 C 144.894531 103.359375 144.582031 103.5 144.226562 103.5 M 144.226562 99.484375 C 143.472656 99.484375 142.78125 99.792969 142.289062 100.285156 C 141.960938 100.613281 141.714844 101.027344 141.585938 101.492188 C 141.519531 101.726562 141.488281 101.96875 141.488281 102.222656 C 141.488281 102.476562 141.519531 102.722656 141.585938 102.953125 C 141.714844 103.417969 141.960938 103.832031 142.289062 104.160156 C 142.78125 104.65625 143.472656 104.960938 144.226562 104.960938 C 144.980469 104.960938 145.671875 104.65625 146.164062 104.160156 C 146.65625 103.667969 146.964844 102.976562 146.964844 102.222656 C 146.964844 101.46875 146.65625 100.78125 146.164062 100.285156 C 145.671875 99.792969 144.980469 99.484375 144.226562 99.484375 " fill-opacity="1" fill-rule="nonzero"/></g><path fill="#ffffff" d="M 138.683594 95.59375 L 136.855469 95.59375 L 136.855469 97.054688 L 138.683594 97.054688 C 138.621094 96.824219 138.585938 96.578125 138.585938 96.324219 C 138.585938 96.074219 138.621094 95.828125 138.683594 95.59375 " fill-opacity="1" fill-rule="nonzero"/><path fill="#ffffff" d="M 141.324219 97.601562 C 140.972656 97.601562 140.65625 97.460938 140.421875 97.226562 C 140.191406 96.996094 140.050781 96.679688 140.046875 96.324219 C 140.050781 95.96875 140.191406 95.65625 140.421875 95.421875 C 140.65625 95.191406 140.972656 95.046875 141.324219 95.046875 C 141.679688 95.046875 141.996094 95.1875 142.230469 95.421875 C 142.460938 95.65625 142.601562 95.96875 142.601562 96.324219 C 142.601562 96.679688 142.460938 96.996094 142.230469 97.226562 C 141.996094 97.460938 141.679688 97.601562 141.324219 97.601562 M 141.328125 93.585938 C 141.328125 93.585938 141.328125 93.585938 141.324219 93.585938 C 140.570312 93.585938 139.882812 93.894531 139.390625 94.386719 C 139.058594 94.714844 138.8125 95.132812 138.683594 95.59375 C 138.621094 95.828125 138.585938 96.074219 138.585938 96.324219 C 138.585938 96.578125 138.621094 96.824219 138.683594 97.054688 C 138.8125 97.519531 139.058594 97.933594 139.390625 98.261719 C 139.882812 98.757812 140.570312 99.066406 141.324219 99.066406 C 142.082031 99.066406 142.769531 98.757812 143.261719 98.261719 C 143.757812 97.769531 144.066406 97.078125 144.066406 96.324219 C 144.066406 95.570312 143.757812 94.882812 143.261719 94.386719 C 142.769531 93.894531 142.082031 93.585938 141.328125 93.585938 " fill-opacity="1" fill-rule="nonzero"/><path fill="#ffffff" d="M 119.074219 85.171875 C 117.832031 85.183594 116.699219 85.691406 115.886719 86.507812 C 115.070312 87.324219 114.558594 88.453125 114.550781 89.695312 L 116.011719 89.695312 L 116.011719 91.15625 L 114.550781 91.15625 L 114.550781 95.59375 L 116.011719 95.59375 L 116.011719 97.054688 L 114.550781 97.054688 L 114.550781 101.492188 L 116.011719 101.492188 L 116.011719 102.953125 L 114.550781 102.953125 C 114.558594 104.195312 115.070312 105.328125 115.886719 106.140625 C 116.699219 106.957031 117.832031 107.46875 119.074219 107.476562 L 119.074219 106.015625 L 120.535156 106.015625 L 120.535156 107.476562 L 124.972656 107.476562 L 124.972656 106.015625 L 126.433594 106.015625 L 126.433594 107.476562 L 130.871094 107.476562 L 130.871094 106.015625 L 132.332031 106.015625 L 132.332031 107.476562 C 133.574219 107.46875 134.703125 106.957031 135.519531 106.140625 C 136.335938 105.328125 136.84375 104.195312 136.855469 102.953125 L 135.394531 102.953125 L 135.394531 102.914062 C 135.394531 103.773438 135.046875 104.542969 134.484375 105.109375 C 133.921875 105.667969 133.152344 106.015625 132.292969 106.015625 L 119.113281 106.015625 C 118.253906 106.015625 117.484375 105.667969 116.921875 105.109375 C 116.359375 104.542969 116.011719 103.773438 116.011719 102.914062 L 116.011719 89.734375 C 116.011719 88.878906 116.359375 88.105469 116.921875 87.542969 C 117.484375 86.980469 118.253906 86.636719 119.113281 86.632812 L 119.074219 86.632812 L 119.074219 85.171875 M 132.332031 85.171875 L 132.332031 86.632812 L 132.292969 86.632812 C 133.152344 86.632812 133.921875 86.980469 134.484375 87.542969 C 135.046875 88.105469 135.394531 88.875 135.394531 89.734375 L 135.394531 89.695312 L 136.855469 89.695312 C 136.84375 88.453125 136.335938 87.324219 135.519531 86.507812 C 134.703125 85.691406 133.574219 85.183594 132.332031 85.171875 M 124.972656 85.171875 L 120.535156 85.171875 L 120.535156 86.632812 L 124.972656 86.632812 L 124.972656 85.171875 M 130.871094 85.171875 L 126.433594 85.171875 L 126.433594 86.632812 L 130.871094 86.632812 L 130.871094 85.171875 " fill-opacity="1" fill-rule="nonzero"/><path fill="#ffffff" d="M 132.332031 106.015625 L 130.871094 106.015625 L 130.871094 107.476562 L 132.292969 107.476562 C 132.304688 107.476562 132.320312 107.476562 132.332031 107.476562 L 132.332031 106.015625 " fill-opacity="1" fill-rule="nonzero"/><path fill="#ffffff" d="M 120.535156 106.015625 L 119.074219 106.015625 L 119.074219 107.476562 C 119.085938 107.476562 119.097656 107.476562 119.113281 107.476562 L 120.535156 107.476562 L 120.535156 106.015625 " fill-opacity="1" fill-rule="nonzero"/><path fill="#ffffff" d="M 126.433594 106.015625 L 124.972656 106.015625 L 124.972656 107.476562 L 126.433594 107.476562 L 126.433594 106.015625 " fill-opacity="1" fill-rule="nonzero"/><path fill="#ffffff" d="M 120.535156 85.171875 L 119.113281 85.171875 C 119.101562 85.171875 119.085938 85.171875 119.074219 85.171875 L 119.074219 86.632812 L 120.535156 86.632812 L 120.535156 85.171875 " fill-opacity="1" fill-rule="nonzero"/><path fill="#ffffff" d="M 132.292969 85.171875 L 130.871094 85.171875 L 130.871094 86.632812 L 132.332031 86.632812 L 132.332031 85.171875 C 132.320312 85.171875 132.304688 85.171875 132.292969 85.171875 " fill-opacity="1" fill-rule="nonzero"/><path fill="#ffffff" d="M 126.433594 85.171875 L 124.972656 85.171875 L 124.972656 86.632812 L 126.433594 86.632812 L 126.433594 85.171875 " fill-opacity="1" fill-rule="nonzero"/><path fill="#ffffff" d="M 136.855469 97.054688 L 135.394531 97.054688 L 135.394531 101.492188 L 136.855469 101.492188 L 136.855469 97.054688 M 136.855469 91.15625 L 135.394531 91.15625 L 135.394531 95.59375 L 136.855469 95.59375 L 136.855469 91.15625 " fill-opacity="1" fill-rule="nonzero"/><path fill="#ffffff" d="M 116.011719 101.492188 L 114.550781 101.492188 L 114.550781 102.914062 C 114.550781 102.929688 114.550781 102.941406 114.550781 102.953125 L 116.011719 102.953125 L 116.011719 101.492188 " fill-opacity="1" fill-rule="nonzero"/><path fill="#ffffff" d="M 116.011719 89.695312 L 114.550781 89.695312 C 114.550781 89.707031 114.550781 89.722656 114.550781 89.734375 L 114.550781 91.15625 L 116.011719 91.15625 L 116.011719 89.695312 " fill-opacity="1" fill-rule="nonzero"/><path fill="#ffffff" d="M 116.011719 95.59375 L 114.550781 95.59375 L 114.550781 97.054688 L 116.011719 97.054688 L 116.011719 95.59375 " fill-opacity="1" fill-rule="nonzero"/><path fill="#ffffff" d="M 136.855469 89.695312 L 135.394531 89.695312 L 135.394531 91.15625 L 136.855469 91.15625 L 136.855469 89.734375 C 136.855469 89.722656 136.855469 89.707031 136.855469 89.695312 " fill-opacity="1" fill-rule="nonzero"/><path fill="#ffffff" d="M 136.855469 102.914062 L 135.394531 102.914062 L 135.394531 102.953125 L 136.855469 102.953125 C 136.855469 102.941406 136.855469 102.929688 136.855469 102.914062 M 136.855469 101.492188 L 135.394531 101.492188 L 135.394531 102.914062 L 136.855469 102.914062 L 136.855469 101.492188 " fill-opacity="1" fill-rule="nonzero"/><path fill="#ffffff" d="M 136.855469 95.59375 L 135.394531 95.59375 L 135.394531 97.054688 L 136.855469 97.054688 L 136.855469 95.59375 " fill-opacity="1" fill-rule="nonzero"/><path fill="#ffffff" d="M 129.996094 88.804688 L 121.410156 88.804688 C 120.519531 88.800781 119.707031 89.164062 119.125 89.75 C 118.542969 90.332031 118.179688 91.140625 118.179688 92.03125 L 118.179688 100.617188 C 118.179688 101.507812 118.542969 102.320312 119.125 102.902344 C 119.707031 103.484375 120.519531 103.847656 121.40625 103.847656 C 121.410156 103.847656 121.410156 103.847656 121.410156 103.847656 L 129.996094 103.847656 C 130.886719 103.847656 131.699219 103.484375 132.28125 102.902344 C 132.863281 102.320312 133.226562 101.507812 133.226562 100.617188 L 131.761719 100.617188 C 131.761719 101.109375 131.566406 101.546875 131.246094 101.867188 C 130.921875 102.1875 130.488281 102.382812 129.996094 102.382812 L 121.410156 102.382812 C 120.917969 102.382812 120.480469 102.1875 120.160156 101.867188 C 119.839844 101.546875 119.644531 101.109375 119.644531 100.617188 L 119.644531 92.03125 C 119.644531 91.542969 119.839844 91.105469 120.160156 90.78125 C 120.480469 90.460938 120.917969 90.265625 121.410156 90.265625 L 129.996094 90.265625 C 130.488281 90.265625 130.921875 90.460938 131.246094 90.78125 C 131.566406 91.105469 131.761719 91.542969 131.761719 92.03125 L 131.761719 100.617188 L 133.226562 100.617188 L 133.226562 92.03125 C 133.226562 91.140625 132.863281 90.332031 132.28125 89.75 C 131.699219 89.164062 130.886719 88.804688 129.996094 88.804688 " fill-opacity="1" fill-rule="nonzero"/><g fill="#ffffff" fill-opacity="1"><g transform="translate(77.577583, 142.019004)"><g><path d="M 5.617188 -10.015625 L 1.023438 -10.015625 L 1.023438 0 L 2.289062 0 L 2.289062 -4.15625 L 5.558594 -4.15625 C 7.769531 -4.15625 8.644531 -5.496094 8.644531 -7.09375 C 8.644531 -8.703125 7.769531 -10.015625 5.617188 -10.015625 Z M 5.300781 -5.164062 L 2.289062 -5.164062 L 2.289062 -9.007812 L 5.347656 -9.007812 C 6.792969 -9.007812 7.335938 -8.28125 7.335938 -7.09375 C 7.335938 -5.949219 6.792969 -5.164062 5.300781 -5.164062 Z M 5.300781 -5.164062 "/></g></g></g><g fill="#ffffff" fill-opacity="1"><g transform="translate(86.85351, 142.019004)"><g><path d="M 5.058594 -7.636719 C 3.628906 -7.636719 2.757812 -6.792969 2.304688 -5.542969 L 2.304688 -7.53125 L 1.097656 -7.53125 L 1.097656 0 L 2.304688 0 L 2.304688 -2.769531 C 2.304688 -4.894531 2.785156 -6.519531 5.015625 -6.445312 L 5.332031 -6.445312 L 5.332031 -7.636719 Z M 5.058594 -7.636719 "/></g></g></g><g fill="#ffffff" fill-opacity="1"><g transform="translate(92.650969, 142.019004)"><g><path d="M 4.519531 0.242188 C 7.046875 0.242188 8.296875 -1.519531 8.296875 -3.78125 C 8.296875 -6.007812 7.046875 -7.769531 4.519531 -7.769531 C 1.972656 -7.769531 0.722656 -6.023438 0.722656 -3.78125 C 0.722656 -1.507812 1.972656 0.242188 4.519531 0.242188 Z M 1.941406 -3.765625 C 1.941406 -5.886719 2.816406 -6.792969 4.519531 -6.792969 C 6.21875 -6.792969 7.078125 -5.886719 7.078125 -3.765625 C 7.078125 -1.65625 6.21875 -0.738281 4.519531 -0.738281 C 2.816406 -0.738281 1.941406 -1.65625 1.941406 -3.765625 Z M 1.941406 -3.765625 "/></g></g></g><g fill="#ffffff" fill-opacity="1"><g transform="translate(101.670911, 142.019004)"><g><path d="M 0.722656 -3.765625 C 0.722656 -1.460938 2.019531 0.242188 4.488281 0.242188 C 6.777344 0.242188 7.996094 -1.144531 8.085938 -2.875 L 6.941406 -2.875 C 6.792969 -1.597656 6.007812 -0.738281 4.488281 -0.738281 C 2.90625 -0.738281 1.941406 -1.582031 1.941406 -3.765625 C 1.941406 -5.933594 2.9375 -6.792969 4.53125 -6.792969 C 5.933594 -6.792969 6.6875 -6.007812 6.867188 -4.773438 L 7.996094 -4.773438 C 7.875 -6.519531 6.746094 -7.769531 4.488281 -7.769531 C 2.046875 -7.769531 0.722656 -6.070312 0.722656 -3.765625 Z M 0.722656 -3.765625 "/></g></g></g><g fill="#ffffff" fill-opacity="1"><g transform="translate(110.389689, 142.019004)"><g><path d="M 4.503906 -0.675781 C 2.996094 -0.675781 2.003906 -1.429688 1.914062 -3.492188 L 7.96875 -3.492188 C 7.996094 -3.675781 7.996094 -3.824219 7.996094 -4.019531 C 7.996094 -6.21875 6.71875 -7.769531 4.457031 -7.769531 C 1.957031 -7.769531 0.722656 -6.023438 0.722656 -3.78125 C 0.722656 -1.507812 1.867188 0.242188 4.457031 0.242188 C 6.957031 0.242188 7.832031 -1.175781 7.980469 -2.320312 L 6.882812 -2.320312 C 6.65625 -1.371094 5.980469 -0.675781 4.503906 -0.675781 Z M 4.472656 -6.851562 C 5.875 -6.851562 6.761719 -6.128906 6.824219 -4.398438 L 1.941406 -4.398438 C 2.109375 -6.175781 3.042969 -6.851562 4.472656 -6.851562 Z M 4.472656 -6.851562 "/></g></g></g><g fill="#ffffff" fill-opacity="1"><g transform="translate(119.063286, 142.019004)"><g><path d="M 0.574219 -2.515625 C 0.601562 -0.933594 1.597656 0.242188 4.050781 0.242188 C 6.054688 0.242188 7.125 -0.511719 7.125 -2.046875 C 7.125 -3.28125 6.492188 -4.019531 4.757812 -4.277344 L 3.164062 -4.503906 C 2.214844 -4.636719 1.941406 -5.089844 1.941406 -5.617188 C 1.941406 -6.355469 2.46875 -6.867188 3.75 -6.867188 C 5.136719 -6.867188 5.707031 -6.160156 5.78125 -5.375 L 6.972656 -5.375 C 6.882812 -6.792969 5.753906 -7.785156 3.78125 -7.785156 C 1.882812 -7.785156 0.769531 -6.925781 0.769531 -5.527344 C 0.769531 -4.367188 1.507812 -3.675781 2.816406 -3.492188 L 4.5625 -3.238281 C 5.511719 -3.101562 5.933594 -2.710938 5.933594 -1.988281 C 5.933594 -1.144531 5.40625 -0.675781 4.082031 -0.675781 C 2.347656 -0.675781 1.777344 -1.492188 1.6875 -2.515625 Z M 0.574219 -2.515625 "/></g></g></g><g fill="#ffffff" fill-opacity="1"><g transform="translate(126.833379, 142.019004)"><g><path d="M 0.574219 -2.515625 C 0.601562 -0.933594 1.597656 0.242188 4.050781 0.242188 C 6.054688 0.242188 7.125 -0.511719 7.125 -2.046875 C 7.125 -3.28125 6.492188 -4.019531 4.757812 -4.277344 L 3.164062 -4.503906 C 2.214844 -4.636719 1.941406 -5.089844 1.941406 -5.617188 C 1.941406 -6.355469 2.46875 -6.867188 3.75 -6.867188 C 5.136719 -6.867188 5.707031 -6.160156 5.78125 -5.375 L 6.972656 -5.375 C 6.882812 -6.792969 5.753906 -7.785156 3.78125 -7.785156 C 1.882812 -7.785156 0.769531 -6.925781 0.769531 -5.527344 C 0.769531 -4.367188 1.507812 -3.675781 2.816406 -3.492188 L 4.5625 -3.238281 C 5.511719 -3.101562 5.933594 -2.710938 5.933594 -1.988281 C 5.933594 -1.144531 5.40625 -0.675781 4.082031 -0.675781 C 2.347656 -0.675781 1.777344 -1.492188 1.6875 -2.515625 Z M 0.574219 -2.515625 "/></g></g></g><g fill="#ffffff" fill-opacity="1"><g transform="translate(134.603472, 142.019004)"><g><path d="M 3.359375 0.195312 C 5.105469 0.195312 5.902344 -0.859375 6.191406 -1.761719 C 6.191406 -1.203125 6.234375 -0.648438 6.296875 0 L 7.394531 0 C 7.320312 -0.738281 7.304688 -1.324219 7.304688 -1.867188 L 7.304688 -5.480469 C 7.304688 -6.835938 6.371094 -7.785156 4.308594 -7.785156 C 2.230469 -7.785156 1.097656 -6.761719 1.054688 -5.164062 L 2.242188 -5.164062 C 2.320312 -6.144531 2.875 -6.835938 4.351562 -6.835938 C 5.8125 -6.835938 6.203125 -6.25 6.203125 -5.480469 C 6.203125 -4.910156 5.875 -4.699219 5.074219 -4.5625 L 3.164062 -4.246094 C 1.535156 -3.976562 0.875 -3.207031 0.875 -1.988281 C 0.875 -0.558594 1.914062 0.195312 3.359375 0.195312 Z M 3.597656 -0.753906 C 2.710938 -0.753906 2.09375 -1.175781 2.09375 -2.03125 C 2.09375 -2.847656 2.574219 -3.238281 3.597656 -3.449219 L 4.847656 -3.703125 C 5.421875 -3.824219 5.828125 -3.945312 6.203125 -4.21875 L 6.203125 -3.570312 C 6.203125 -2.136719 5.375 -0.753906 3.597656 -0.753906 Z M 3.597656 -0.753906 "/></g></g></g><g fill="#ffffff" fill-opacity="1"><g transform="translate(142.855438, 142.019004)"><g><path d="M 7.03125 -10.542969 L 7.03125 -6.097656 C 6.519531 -7.167969 5.574219 -7.769531 4.1875 -7.769531 C 1.824219 -7.769531 0.738281 -6.085938 0.738281 -3.765625 C 0.738281 -1.460938 1.824219 0.242188 4.1875 0.242188 C 5.574219 0.242188 6.519531 -0.375 7.03125 -1.445312 L 7.03125 0 L 8.238281 0 L 8.238281 -10.542969 Z M 4.425781 -0.738281 C 2.710938 -0.738281 1.957031 -1.746094 1.957031 -3.765625 C 1.957031 -5.796875 2.710938 -6.792969 4.425781 -6.792969 C 6.023438 -6.792969 7.03125 -5.886719 7.03125 -3.765625 C 7.03125 -1.640625 6.023438 -0.738281 4.425781 -0.738281 Z M 4.425781 -0.738281 "/></g></g></g><g fill="#ffffff" fill-opacity="1"><g transform="translate(152.161484, 142.019004)"><g><path d="M 4.519531 0.242188 C 7.046875 0.242188 8.296875 -1.519531 8.296875 -3.78125 C 8.296875 -6.007812 7.046875 -7.769531 4.519531 -7.769531 C 1.972656 -7.769531 0.722656 -6.023438 0.722656 -3.78125 C 0.722656 -1.507812 1.972656 0.242188 4.519531 0.242188 Z M 1.941406 -3.765625 C 1.941406 -5.886719 2.816406 -6.792969 4.519531 -6.792969 C 6.21875 -6.792969 7.078125 -5.886719 7.078125 -3.765625 C 7.078125 -1.65625 6.21875 -0.738281 4.519531 -0.738281 C 2.816406 -0.738281 1.941406 -1.65625 1.941406 -3.765625 Z M 1.941406 -3.765625 "/></g></g></g><g fill="#ffffff" fill-opacity="1"><g transform="translate(161.181426, 142.019004)"><g><path d="M 5.058594 -7.636719 C 3.628906 -7.636719 2.757812 -6.792969 2.304688 -5.542969 L 2.304688 -7.53125 L 1.097656 -7.53125 L 1.097656 0 L 2.304688 0 L 2.304688 -2.769531 C 2.304688 -4.894531 2.785156 -6.519531 5.015625 -6.445312 L 5.332031 -6.445312 L 5.332031 -7.636719 Z M 5.058594 -7.636719 "/></g></g></g><g fill="#ffffff" fill-opacity="1"><g transform="translate(166.978885, 142.019004)"><g><path d="M 4.503906 -0.675781 C 2.996094 -0.675781 2.003906 -1.429688 1.914062 -3.492188 L 7.96875 -3.492188 C 7.996094 -3.675781 7.996094 -3.824219 7.996094 -4.019531 C 7.996094 -6.21875 6.71875 -7.769531 4.457031 -7.769531 C 1.957031 -7.769531 0.722656 -6.023438 0.722656 -3.78125 C 0.722656 -1.507812 1.867188 0.242188 4.457031 0.242188 C 6.957031 0.242188 7.832031 -1.175781 7.980469 -2.320312 L 6.882812 -2.320312 C 6.65625 -1.371094 5.980469 -0.675781 4.503906 -0.675781 Z M 4.472656 -6.851562 C 5.875 -6.851562 6.761719 -6.128906 6.824219 -4.398438 L 1.941406 -4.398438 C 2.109375 -6.175781 3.042969 -6.851562 4.472656 -6.851562 Z M 4.472656 -6.851562 "/></g></g></g><g fill="#ffffff" fill-opacity="1"><g transform="translate(175.652483, 142.019004)"><g><path d="M 0.574219 -2.515625 C 0.601562 -0.933594 1.597656 0.242188 4.050781 0.242188 C 6.054688 0.242188 7.125 -0.511719 7.125 -2.046875 C 7.125 -3.28125 6.492188 -4.019531 4.757812 -4.277344 L 3.164062 -4.503906 C 2.214844 -4.636719 1.941406 -5.089844 1.941406 -5.617188 C 1.941406 -6.355469 2.46875 -6.867188 3.75 -6.867188 C 5.136719 -6.867188 5.707031 -6.160156 5.78125 -5.375 L 6.972656 -5.375 C 6.882812 -6.792969 5.753906 -7.785156 3.78125 -7.785156 C 1.882812 -7.785156 0.769531 -6.925781 0.769531 -5.527344 C 0.769531 -4.367188 1.507812 -3.675781 2.816406 -3.492188 L 4.5625 -3.238281 C 5.511719 -3.101562 5.933594 -2.710938 5.933594 -1.988281 C 5.933594 -1.144531 5.40625 -0.675781 4.082031 -0.675781 C 2.347656 -0.675781 1.777344 -1.492188 1.6875 -2.515625 Z M 0.574219 -2.515625 "/></g></g></g></svg>