<svg xmlns="http://www.w3.org/2000/svg" xmlns:xlink="http://www.w3.org/1999/xlink" width="348" zoomAndPan="magnify" viewBox="0 0 261 222.749995" height="297" preserveAspectRatio="xMidYMid meet" version="1.0"><defs><g/><clipPath id="67719bf242"><path d="M 109.066406 87 L 151.546875 87 L 151.546875 108 L 109.066406 108 Z M 109.066406 87 " clip-rule="nonzero"/></clipPath><clipPath id="47e70a5e24"><path d="M 119 75.621094 L 142 75.621094 L 142 89 L 119 89 Z M 119 75.621094 " clip-rule="nonzero"/></clipPath><clipPath id="1fc2e11848"><path d="M 121 100 L 140 100 L 140 117.472656 L 121 117.472656 Z M 121 100 " clip-rule="nonzero"/></clipPath></defs><g clip-path="url(#67719bf242)"><path fill="#ffffff" d="M 119.101562 87.011719 L 114.917969 87.011719 C 113.308594 87.007812 111.84375 87.660156 110.789062 88.707031 C 109.734375 89.753906 109.078125 91.207031 109.078125 92.808594 L 109.078125 101.582031 C 109.078125 103.179688 109.734375 104.632812 110.789062 105.679688 C 111.84375 106.730469 113.304688 107.378906 114.917969 107.378906 L 121.328125 107.378906 L 121.328125 105.929688 L 114.917969 105.929688 C 113.707031 105.929688 112.617188 105.445312 111.820312 104.65625 C 111.027344 103.867188 110.539062 102.785156 110.539062 101.582031 L 110.539062 92.808594 C 110.539062 91.605469 111.027344 90.523438 111.820312 89.734375 C 112.617188 88.945312 113.707031 88.460938 114.917969 88.460938 L 119.101562 88.460938 L 119.101562 87.011719 M 140.050781 87.011719 L 120.5625 87.011719 L 120.5625 88.460938 L 140.050781 88.460938 L 140.050781 87.011719 M 145.699219 87.011719 C 145.695312 87.011719 145.695312 87.011719 145.695312 87.011719 L 141.511719 87.011719 L 141.511719 88.460938 L 145.695312 88.460938 C 146.90625 88.460938 148 88.945312 148.792969 89.734375 C 149.585938 90.523438 150.074219 91.605469 150.078125 92.808594 L 150.078125 101.582031 C 150.074219 102.785156 149.585938 103.867188 148.792969 104.65625 C 148 105.445312 146.90625 105.929688 145.695312 105.929688 L 139.285156 105.929688 L 139.285156 107.378906 L 145.695312 107.378906 C 147.304688 107.378906 148.769531 106.730469 149.824219 105.679688 C 150.882812 104.632812 151.535156 103.179688 151.535156 101.582031 L 151.535156 92.808594 C 151.535156 91.207031 150.882812 89.753906 149.824219 88.707031 C 148.773438 87.660156 147.308594 87.011719 145.699219 87.011719 " fill-opacity="1" fill-rule="nonzero"/></g><g clip-path="url(#47e70a5e24)"><path fill="#ffffff" d="M 120.5625 88.460938 L 119.101562 88.460938 L 119.101562 88.488281 L 120.5625 88.488281 L 120.5625 88.460938 M 141.511719 88.460938 L 140.050781 88.460938 L 140.050781 88.488281 L 141.511719 88.488281 L 141.511719 88.460938 M 140.78125 75.617188 L 119.832031 75.617188 C 119.640625 75.617188 119.453125 75.695312 119.316406 75.832031 C 119.179688 75.964844 119.101562 76.152344 119.101562 76.34375 L 119.101562 87.011719 L 120.5625 87.011719 L 120.5625 77.066406 L 140.050781 77.066406 L 140.050781 87.011719 L 141.511719 87.011719 L 141.511719 76.34375 C 141.511719 76.152344 141.433594 75.964844 141.296875 75.832031 C 141.164062 75.695312 140.972656 75.617188 140.78125 75.617188 " fill-opacity="1" fill-rule="nonzero"/></g><path fill="#ffffff" d="M 120.5625 87.011719 L 119.101562 87.011719 L 119.101562 88.460938 L 120.5625 88.460938 L 120.5625 87.011719 M 141.511719 87.011719 L 140.050781 87.011719 L 140.050781 88.460938 L 141.511719 88.460938 L 141.511719 87.011719 " fill-opacity="1" fill-rule="nonzero"/><path fill="#ffffff" d="M 144.761719 90.261719 C 144.058594 90.261719 143.414062 90.546875 142.953125 91.007812 C 142.492188 91.464844 142.203125 92.101562 142.203125 92.800781 C 142.203125 93.496094 142.492188 94.136719 142.953125 94.59375 C 143.414062 95.050781 144.054688 95.335938 144.757812 95.335938 C 144.757812 95.335938 144.757812 95.335938 144.761719 95.335938 C 145.464844 95.335938 146.105469 95.050781 146.566406 94.59375 C 147.027344 94.136719 147.316406 93.496094 147.316406 92.800781 L 145.855469 92.800781 C 145.855469 93.101562 145.734375 93.371094 145.535156 93.570312 C 145.332031 93.765625 145.066406 93.886719 144.761719 93.886719 C 144.457031 93.886719 144.1875 93.765625 143.984375 93.570312 C 143.785156 93.371094 143.664062 93.101562 143.664062 92.800781 C 143.664062 92.496094 143.785156 92.230469 143.984375 92.03125 C 144.1875 91.832031 144.457031 91.714844 144.761719 91.714844 C 145.066406 91.714844 145.332031 91.832031 145.535156 92.03125 C 145.734375 92.230469 145.855469 92.496094 145.855469 92.800781 L 147.316406 92.800781 C 147.316406 92.101562 147.027344 91.464844 146.566406 91.007812 C 146.105469 90.550781 145.464844 90.261719 144.761719 90.261719 " fill-opacity="1" fill-rule="nonzero"/><path fill="#ffffff" d="M 139.726562 90.917969 C 139.726562 90.917969 139.722656 90.917969 139.722656 90.917969 C 139.203125 90.917969 138.722656 91.128906 138.382812 91.46875 C 138.039062 91.808594 137.828125 92.28125 137.828125 92.800781 C 137.828125 93.316406 138.039062 93.792969 138.382812 94.132812 C 138.722656 94.472656 139.203125 94.683594 139.722656 94.683594 C 140.246094 94.683594 140.722656 94.472656 141.066406 94.132812 C 141.40625 93.792969 141.621094 93.316406 141.621094 92.800781 L 140.160156 92.800781 C 140.160156 92.921875 140.113281 93.027344 140.03125 93.105469 C 139.953125 93.1875 139.847656 93.234375 139.722656 93.234375 C 139.601562 93.234375 139.496094 93.1875 139.414062 93.105469 C 139.335938 93.027344 139.289062 92.921875 139.289062 92.800781 C 139.289062 92.679688 139.335938 92.574219 139.414062 92.492188 C 139.496094 92.414062 139.601562 92.367188 139.722656 92.367188 C 139.847656 92.367188 139.953125 92.414062 140.03125 92.492188 C 140.113281 92.574219 140.160156 92.679688 140.160156 92.800781 L 141.621094 92.800781 C 141.621094 92.28125 141.40625 91.808594 141.066406 91.46875 C 140.726562 91.128906 140.246094 90.917969 139.726562 90.917969 " fill-opacity="1" fill-rule="nonzero"/><g clip-path="url(#1fc2e11848)"><path fill="#ffffff" d="M 139.285156 100.960938 L 137.828125 100.960938 L 137.828125 116.027344 L 122.785156 116.027344 L 122.785156 100.960938 L 121.328125 100.960938 L 121.328125 105.929688 L 122.785156 105.929688 L 122.785156 107.378906 L 121.328125 107.378906 L 121.328125 116.75 C 121.328125 116.941406 121.40625 117.128906 121.539062 117.261719 C 121.675781 117.398438 121.863281 117.476562 122.058594 117.476562 L 138.558594 117.476562 C 138.75 117.476562 138.9375 117.398438 139.074219 117.261719 C 139.210938 117.128906 139.285156 116.941406 139.285156 116.75 L 139.285156 107.378906 L 137.917969 107.378906 L 137.917969 105.929688 L 139.285156 105.929688 L 139.285156 100.960938 " fill-opacity="1" fill-rule="nonzero"/></g><path fill="#ffffff" d="M 122.785156 105.929688 L 121.328125 105.929688 L 121.328125 107.378906 L 122.785156 107.378906 L 122.785156 105.929688 M 139.285156 105.929688 L 137.917969 105.929688 L 137.917969 107.378906 L 139.285156 107.378906 L 139.285156 105.929688 " fill-opacity="1" fill-rule="nonzero"/><path fill="#ffffff" d="M 140.78125 99.511719 L 119.832031 99.511719 L 119.832031 100.960938 L 121.328125 100.960938 L 121.328125 99.550781 L 122.785156 99.550781 L 122.785156 100.960938 L 137.828125 100.960938 L 137.828125 99.550781 L 139.285156 99.550781 L 139.285156 100.960938 L 140.78125 100.960938 L 140.78125 99.511719 " fill-opacity="1" fill-rule="nonzero"/><path fill="#ffffff" d="M 122.785156 99.550781 L 121.328125 99.550781 L 121.328125 100.960938 L 122.785156 100.960938 L 122.785156 99.550781 M 139.285156 99.550781 L 137.828125 99.550781 L 137.828125 100.960938 L 139.285156 100.960938 L 139.285156 99.550781 " fill-opacity="1" fill-rule="nonzero"/><path fill="#ffffff" d="M 135.199219 102.695312 L 125.414062 102.695312 L 125.414062 104.144531 L 135.199219 104.144531 L 135.199219 102.695312 " fill-opacity="1" fill-rule="nonzero"/><path fill="#ffffff" d="M 135.199219 105.234375 L 125.414062 105.234375 L 125.414062 106.683594 L 135.199219 106.683594 L 135.199219 105.234375 " fill-opacity="1" fill-rule="nonzero"/><path fill="#ffffff" d="M 135.199219 107.769531 L 125.414062 107.769531 L 125.414062 109.21875 L 135.199219 109.21875 L 135.199219 107.769531 " fill-opacity="1" fill-rule="nonzero"/><path fill="#ffffff" d="M 135.199219 110.304688 L 125.414062 110.304688 L 125.414062 111.753906 L 135.199219 111.753906 L 135.199219 110.304688 " fill-opacity="1" fill-rule="nonzero"/><path fill="#ffffff" d="M 135.199219 112.839844 L 125.414062 112.839844 L 125.414062 114.289062 L 135.199219 114.289062 L 135.199219 112.839844 " fill-opacity="1" fill-rule="nonzero"/><g fill="#ffffff" fill-opacity="1"><g transform="translate(84.609184, 142.192561)"><g><path d="M 6.484375 -8.996094 L 6.484375 -10.003906 L 1.007812 -10.003906 L 1.007812 -8.996094 L 3.128906 -8.996094 L 3.128906 -1.007812 L 1.007812 -1.007812 L 1.007812 0 L 6.484375 0 L 6.484375 -1.007812 L 4.363281 -1.007812 L 4.363281 -8.996094 Z M 6.484375 -8.996094 "/></g></g></g><g fill="#ffffff" fill-opacity="1"><g transform="translate(92.100978, 142.192561)"><g><path d="M 10.320312 -7.761719 C 8.816406 -7.761719 7.945312 -6.964844 7.507812 -5.640625 C 7.296875 -7.042969 6.5 -7.761719 5.039062 -7.761719 C 3.597656 -7.761719 2.738281 -6.964844 2.300781 -5.671875 L 2.300781 -7.523438 L 1.097656 -7.523438 L 1.097656 0 L 2.300781 0 L 2.300781 -2.875 C 2.300781 -5.460938 3.054688 -6.753906 4.664062 -6.753906 C 5.761719 -6.753906 6.394531 -6.230469 6.394531 -4.710938 L 6.394531 0 L 7.566406 0 L 7.566406 -2.875 C 7.566406 -5.460938 8.304688 -6.753906 9.945312 -6.753906 C 11.042969 -6.753906 11.660156 -6.230469 11.660156 -4.710938 L 11.660156 0 L 12.863281 0 L 12.863281 -4.84375 C 12.863281 -6.769531 12.035156 -7.761719 10.320312 -7.761719 Z M 10.320312 -7.761719 "/></g></g></g><g fill="#ffffff" fill-opacity="1"><g transform="translate(105.911148, 142.192561)"><g><path d="M 5.117188 -7.761719 C 3.730469 -7.761719 2.785156 -7.144531 2.273438 -6.078125 L 2.273438 -7.523438 L 1.066406 -7.523438 L 1.066406 3.007812 L 2.273438 3.007812 L 2.273438 -1.429688 C 2.785156 -0.359375 3.730469 0.242188 5.117188 0.242188 C 7.476562 0.242188 8.5625 -1.445312 8.5625 -3.761719 C 8.5625 -6.0625 7.476562 -7.761719 5.117188 -7.761719 Z M 4.875 -0.738281 C 3.28125 -0.738281 2.273438 -1.640625 2.273438 -3.761719 C 2.273438 -5.882812 3.28125 -6.785156 4.875 -6.785156 C 6.589844 -6.785156 7.34375 -5.777344 7.34375 -3.761719 C 7.34375 -1.730469 6.589844 -0.738281 4.875 -0.738281 Z M 4.875 -0.738281 "/></g></g></g><g fill="#ffffff" fill-opacity="1"><g transform="translate(115.208194, 142.192561)"><g><path d="M 5.054688 -7.628906 C 3.625 -7.628906 2.753906 -6.785156 2.300781 -5.535156 L 2.300781 -7.523438 L 1.097656 -7.523438 L 1.097656 0 L 2.300781 0 L 2.300781 -2.769531 C 2.300781 -4.890625 2.785156 -6.515625 5.011719 -6.4375 L 5.324219 -6.4375 L 5.324219 -7.628906 Z M 5.054688 -7.628906 "/></g></g></g><g fill="#ffffff" fill-opacity="1"><g transform="translate(121.000044, 142.192561)"><g><path d="M 4.5 -0.675781 C 2.992188 -0.675781 2 -1.429688 1.910156 -3.492188 L 7.957031 -3.492188 C 7.988281 -3.671875 7.988281 -3.820312 7.988281 -4.015625 C 7.988281 -6.214844 6.710938 -7.761719 4.453125 -7.761719 C 1.957031 -7.761719 0.722656 -6.019531 0.722656 -3.777344 C 0.722656 -1.503906 1.867188 0.242188 4.453125 0.242188 C 6.949219 0.242188 7.824219 -1.171875 7.972656 -2.316406 L 6.875 -2.316406 C 6.648438 -1.367188 5.972656 -0.675781 4.5 -0.675781 Z M 4.46875 -6.84375 C 5.867188 -6.84375 6.753906 -6.125 6.816406 -4.394531 L 1.941406 -4.394531 C 2.105469 -6.167969 3.039062 -6.84375 4.46875 -6.84375 Z M 4.46875 -6.84375 "/></g></g></g><g fill="#ffffff" fill-opacity="1"><g transform="translate(129.66525, 142.192561)"><g><path d="M 0.570312 -2.511719 C 0.601562 -0.933594 1.59375 0.242188 4.046875 0.242188 C 6.046875 0.242188 7.117188 -0.511719 7.117188 -2.046875 C 7.117188 -3.28125 6.484375 -4.015625 4.753906 -4.273438 L 3.160156 -4.5 C 2.210938 -4.632812 1.941406 -5.085938 1.941406 -5.613281 C 1.941406 -6.347656 2.46875 -6.859375 3.746094 -6.859375 C 5.128906 -6.859375 5.703125 -6.152344 5.777344 -5.371094 L 6.964844 -5.371094 C 6.875 -6.785156 5.746094 -7.777344 3.777344 -7.777344 C 1.878906 -7.777344 0.765625 -6.921875 0.765625 -5.523438 C 0.765625 -4.363281 1.503906 -3.671875 2.8125 -3.492188 L 4.558594 -3.234375 C 5.507812 -3.097656 5.929688 -2.707031 5.929688 -1.984375 C 5.929688 -1.144531 5.402344 -0.675781 4.078125 -0.675781 C 2.347656 -0.675781 1.773438 -1.488281 1.683594 -2.511719 Z M 0.570312 -2.511719 "/></g></g></g><g fill="#ffffff" fill-opacity="1"><g transform="translate(137.42783, 142.192561)"><g><path d="M 0.570312 -2.511719 C 0.601562 -0.933594 1.59375 0.242188 4.046875 0.242188 C 6.046875 0.242188 7.117188 -0.511719 7.117188 -2.046875 C 7.117188 -3.28125 6.484375 -4.015625 4.753906 -4.273438 L 3.160156 -4.5 C 2.210938 -4.632812 1.941406 -5.085938 1.941406 -5.613281 C 1.941406 -6.347656 2.46875 -6.859375 3.746094 -6.859375 C 5.128906 -6.859375 5.703125 -6.152344 5.777344 -5.371094 L 6.964844 -5.371094 C 6.875 -6.785156 5.746094 -7.777344 3.777344 -7.777344 C 1.878906 -7.777344 0.765625 -6.921875 0.765625 -5.523438 C 0.765625 -4.363281 1.503906 -3.671875 2.8125 -3.492188 L 4.558594 -3.234375 C 5.507812 -3.097656 5.929688 -2.707031 5.929688 -1.984375 C 5.929688 -1.144531 5.402344 -0.675781 4.078125 -0.675781 C 2.347656 -0.675781 1.773438 -1.488281 1.683594 -2.511719 Z M 0.570312 -2.511719 "/></g></g></g><g fill="#ffffff" fill-opacity="1"><g transform="translate(145.19041, 142.192561)"><g><path d="M 4.511719 0.242188 C 7.042969 0.242188 8.289062 -1.519531 8.289062 -3.777344 C 8.289062 -6.003906 7.042969 -7.761719 4.511719 -7.761719 C 1.972656 -7.761719 0.722656 -6.019531 0.722656 -3.777344 C 0.722656 -1.503906 1.972656 0.242188 4.511719 0.242188 Z M 1.941406 -3.761719 C 1.941406 -5.882812 2.8125 -6.785156 4.511719 -6.785156 C 6.214844 -6.785156 7.070312 -5.882812 7.070312 -3.761719 C 7.070312 -1.65625 6.214844 -0.738281 4.511719 -0.738281 C 2.8125 -0.738281 1.941406 -1.65625 1.941406 -3.761719 Z M 1.941406 -3.761719 "/></g></g></g><g fill="#ffffff" fill-opacity="1"><g transform="translate(154.201624, 142.192561)"><g><path d="M 5.054688 -7.628906 C 3.625 -7.628906 2.753906 -6.785156 2.300781 -5.535156 L 2.300781 -7.523438 L 1.097656 -7.523438 L 1.097656 0 L 2.300781 0 L 2.300781 -2.769531 C 2.300781 -4.890625 2.785156 -6.515625 5.011719 -6.4375 L 5.324219 -6.4375 L 5.324219 -7.628906 Z M 5.054688 -7.628906 "/></g></g></g><g fill="#ffffff" fill-opacity="1"><g transform="translate(159.993474, 142.192561)"><g><path d="M 3.355469 0.195312 C 5.101562 0.195312 5.898438 -0.859375 6.183594 -1.761719 C 6.183594 -1.203125 6.230469 -0.648438 6.289062 0 L 7.386719 0 C 7.3125 -0.738281 7.296875 -1.324219 7.296875 -1.867188 L 7.296875 -5.476562 C 7.296875 -6.832031 6.363281 -7.777344 4.304688 -7.777344 C 2.226562 -7.777344 1.097656 -6.753906 1.054688 -5.160156 L 2.242188 -5.160156 C 2.316406 -6.136719 2.875 -6.832031 4.347656 -6.832031 C 5.808594 -6.832031 6.199219 -6.242188 6.199219 -5.476562 C 6.199219 -4.90625 5.867188 -4.695312 5.070312 -4.558594 L 3.160156 -4.242188 C 1.535156 -3.972656 0.871094 -3.203125 0.871094 -1.984375 C 0.871094 -0.558594 1.910156 0.195312 3.355469 0.195312 Z M 3.597656 -0.753906 C 2.707031 -0.753906 2.089844 -1.171875 2.089844 -2.03125 C 2.089844 -2.84375 2.574219 -3.234375 3.597656 -3.445312 L 4.84375 -3.699219 C 5.417969 -3.820312 5.824219 -3.941406 6.199219 -4.210938 L 6.199219 -3.566406 C 6.199219 -2.136719 5.371094 -0.753906 3.597656 -0.753906 Z M 3.597656 -0.753906 "/></g></g></g><g fill="#ffffff" fill-opacity="1"><g transform="translate(168.237457, 142.192561)"><g><path d="M 0.570312 -2.511719 C 0.601562 -0.933594 1.59375 0.242188 4.046875 0.242188 C 6.046875 0.242188 7.117188 -0.511719 7.117188 -2.046875 C 7.117188 -3.28125 6.484375 -4.015625 4.753906 -4.273438 L 3.160156 -4.5 C 2.210938 -4.632812 1.941406 -5.085938 1.941406 -5.613281 C 1.941406 -6.347656 2.46875 -6.859375 3.746094 -6.859375 C 5.128906 -6.859375 5.703125 -6.152344 5.777344 -5.371094 L 6.964844 -5.371094 C 6.875 -6.785156 5.746094 -7.777344 3.777344 -7.777344 C 1.878906 -7.777344 0.765625 -6.921875 0.765625 -5.523438 C 0.765625 -4.363281 1.503906 -3.671875 2.8125 -3.492188 L 4.558594 -3.234375 C 5.507812 -3.097656 5.929688 -2.707031 5.929688 -1.984375 C 5.929688 -1.144531 5.402344 -0.675781 4.078125 -0.675781 C 2.347656 -0.675781 1.773438 -1.488281 1.683594 -2.511719 Z M 0.570312 -2.511719 "/></g></g></g></svg>