<svg xmlns="http://www.w3.org/2000/svg" xmlns:xlink="http://www.w3.org/1999/xlink" width="348" zoomAndPan="magnify" viewBox="0 0 261 222.749995" height="297" preserveAspectRatio="xMidYMid meet" version="1.0"><defs><g/><clipPath id="2cb4ee65dc"><path d="M 113.46875 86 L 133 86 L 133 116 L 113.46875 116 Z M 113.46875 86 " clip-rule="nonzero"/></clipPath><clipPath id="b6175b47d7"><path d="M 122 75.597656 L 144 75.597656 L 144 105 L 122 105 Z M 122 75.597656 " clip-rule="nonzero"/></clipPath><clipPath id="c1138f8b76"><path d="M 113.46875 97 L 115 97 L 115 99 L 113.46875 99 Z M 113.46875 97 " clip-rule="nonzero"/></clipPath><clipPath id="1d12315e1e"><path d="M 139 111 L 146 111 L 146 116.203125 L 139 116.203125 Z M 139 111 " clip-rule="nonzero"/></clipPath><clipPath id="d383a205d6"><path d="M 136 104 L 147.824219 104 L 147.824219 112 L 136 112 Z M 136 104 " clip-rule="nonzero"/></clipPath></defs><g clip-path="url(#2cb4ee65dc)"><path fill="#ffffff" d="M 132.1875 98.949219 L 130.789062 98.949219 L 130.789062 106.59375 L 132.1875 106.59375 L 132.1875 98.949219 M 122.160156 86.234375 C 119.863281 86.40625 117.796875 87.414062 116.265625 88.949219 C 114.578125 90.640625 113.53125 92.988281 113.53125 95.570312 L 113.53125 106.59375 C 113.53125 109.175781 114.578125 111.519531 116.265625 113.210938 C 117.949219 114.90625 120.285156 115.953125 122.859375 115.953125 C 125.433594 115.953125 127.769531 114.90625 129.453125 113.210938 C 131.140625 111.519531 132.1875 109.175781 132.1875 106.59375 L 130.789062 106.59375 C 130.785156 108.792969 129.902344 110.777344 128.464844 112.21875 C 127.027344 113.660156 125.050781 114.550781 122.859375 114.550781 C 120.667969 114.550781 118.691406 113.660156 117.253906 112.21875 C 115.820312 110.777344 114.933594 108.792969 114.933594 106.59375 L 114.933594 98.949219 L 113.53125 98.949219 L 113.53125 97.542969 L 114.933594 97.542969 L 114.933594 95.570312 C 114.933594 93.371094 115.820312 91.386719 117.253906 89.945312 C 118.535156 88.660156 120.25 87.8125 122.160156 87.644531 L 122.160156 86.234375 M 123.558594 86.234375 L 123.558594 87.644531 C 125.46875 87.8125 127.183594 88.660156 128.464844 89.945312 C 129.902344 91.386719 130.785156 93.371094 130.789062 95.570312 L 130.789062 97.542969 L 132.1875 97.542969 L 132.1875 95.570312 C 132.1875 92.988281 131.140625 90.640625 129.453125 88.949219 C 127.921875 87.414062 125.855469 86.40625 123.558594 86.234375 " fill-opacity="1" fill-rule="nonzero"/></g><g clip-path="url(#b6175b47d7)"><path fill="#ffffff" d="M 122.859375 87.613281 C 122.625 87.613281 122.390625 87.625 122.160156 87.644531 L 122.160156 92.03125 C 122.382812 91.972656 122.617188 91.941406 122.859375 91.941406 C 122.859375 91.941406 122.859375 91.941406 122.863281 91.941406 C 123.101562 91.941406 123.335938 91.972656 123.558594 92.03125 L 123.558594 87.644531 C 123.328125 87.625 123.097656 87.613281 122.859375 87.613281 M 134.097656 75.589844 L 131.117188 75.589844 C 128.644531 75.589844 126.402344 76.597656 124.785156 78.222656 C 123.164062 79.847656 122.160156 82.101562 122.160156 84.582031 L 122.160156 86.234375 C 122.390625 86.21875 122.625 86.210938 122.859375 86.210938 C 122.859375 86.210938 122.859375 86.210938 122.863281 86.210938 C 123.097656 86.210938 123.328125 86.21875 123.558594 86.234375 L 123.558594 84.582031 C 123.558594 82.484375 124.402344 80.59375 125.773438 79.21875 C 127.144531 77.84375 129.027344 76.996094 131.117188 76.996094 L 134.097656 76.996094 C 136.1875 76.996094 138.074219 77.84375 139.445312 79.207031 C 140.8125 80.570312 141.65625 82.4375 141.65625 84.476562 L 141.65625 104.507812 L 143.054688 104.507812 L 143.054688 84.476562 C 143.054688 82.042969 142.050781 79.820312 140.429688 78.207031 C 138.8125 76.597656 136.570312 75.589844 134.097656 75.589844 " fill-opacity="1" fill-rule="nonzero"/></g><path fill="#ffffff" d="M 122.863281 86.210938 C 122.859375 86.210938 122.859375 86.210938 122.859375 86.210938 C 122.625 86.210938 122.390625 86.21875 122.160156 86.234375 L 122.160156 87.644531 C 122.390625 87.625 122.625 87.613281 122.859375 87.613281 C 123.097656 87.613281 123.328125 87.625 123.558594 87.644531 L 123.558594 86.234375 C 123.328125 86.21875 123.097656 86.210938 122.863281 86.210938 " fill-opacity="1" fill-rule="nonzero"/><path fill="#ffffff" d="M 121.449219 98.949219 L 120.050781 98.949219 L 120.050781 99.300781 C 120.050781 100.074219 120.363281 100.785156 120.871094 101.292969 C 121.378906 101.804688 122.085938 102.121094 122.859375 102.121094 C 123.632812 102.121094 124.339844 101.804688 124.847656 101.292969 C 125.355469 100.785156 125.671875 100.078125 125.671875 99.300781 L 124.269531 99.300781 C 124.269531 99.691406 124.113281 100.042969 123.859375 100.300781 C 123.601562 100.558594 123.253906 100.714844 122.859375 100.714844 C 122.46875 100.714844 122.121094 100.558594 121.863281 100.300781 C 121.605469 100.042969 121.449219 99.691406 121.449219 99.300781 L 121.449219 98.949219 M 123.558594 92.03125 L 123.558594 93.347656 L 122.859375 93.347656 C 123.253906 93.347656 123.601562 93.503906 123.859375 93.761719 C 124.113281 94.019531 124.269531 94.371094 124.269531 94.761719 L 124.269531 99.300781 L 125.671875 99.300781 L 125.671875 98.949219 L 124.269531 98.949219 L 124.269531 97.542969 L 125.671875 97.542969 L 125.671875 94.765625 C 125.671875 93.988281 125.355469 93.277344 124.847656 92.769531 C 124.5 92.417969 124.054688 92.160156 123.558594 92.03125 M 122.160156 92.03125 C 121.664062 92.160156 121.222656 92.417969 120.871094 92.769531 C 120.363281 93.277344 120.050781 93.988281 120.050781 94.761719 L 120.050781 97.542969 L 121.449219 97.542969 L 121.449219 94.765625 C 121.449219 94.371094 121.605469 94.019531 121.863281 93.761719 C 122.121094 93.503906 122.46875 93.347656 122.859375 93.347656 L 122.160156 93.347656 L 122.160156 92.03125 " fill-opacity="1" fill-rule="nonzero"/><path fill="#ffffff" d="M 122.863281 91.941406 C 122.859375 91.941406 122.859375 91.941406 122.859375 91.941406 C 122.617188 91.941406 122.382812 91.972656 122.160156 92.03125 L 122.160156 93.347656 L 123.558594 93.347656 L 123.558594 92.03125 C 123.335938 91.972656 123.101562 91.941406 122.863281 91.941406 " fill-opacity="1" fill-rule="nonzero"/><path fill="#ffffff" d="M 120.050781 97.542969 L 114.933594 97.542969 L 114.933594 98.949219 L 120.050781 98.949219 L 120.050781 97.542969 " fill-opacity="1" fill-rule="nonzero"/><g clip-path="url(#c1138f8b76)"><path fill="#ffffff" d="M 114.933594 97.542969 L 113.53125 97.542969 L 113.53125 98.949219 L 114.933594 98.949219 L 114.933594 97.542969 " fill-opacity="1" fill-rule="nonzero"/></g><path fill="#ffffff" d="M 121.449219 97.542969 L 120.050781 97.542969 L 120.050781 98.949219 L 121.449219 98.949219 L 121.449219 97.542969 " fill-opacity="1" fill-rule="nonzero"/><path fill="#ffffff" d="M 130.789062 97.542969 L 125.671875 97.542969 L 125.671875 98.949219 L 130.789062 98.949219 L 130.789062 97.542969 M 132.1875 97.542969 L 132.1875 98.949219 L 132.1875 97.542969 " fill-opacity="1" fill-rule="nonzero"/><path fill="#ffffff" d="M 132.1875 97.542969 L 130.789062 97.542969 L 130.789062 98.949219 L 132.1875 98.949219 L 132.1875 97.542969 " fill-opacity="1" fill-rule="nonzero"/><path fill="#ffffff" d="M 125.671875 97.542969 L 124.269531 97.542969 L 124.269531 98.949219 L 125.671875 98.949219 L 125.671875 97.542969 " fill-opacity="1" fill-rule="nonzero"/><g clip-path="url(#1d12315e1e)"><path fill="#ffffff" d="M 139.035156 111.546875 L 139.035156 115.492188 C 139.035156 115.675781 139.109375 115.859375 139.238281 115.988281 C 139.367188 116.121094 139.550781 116.195312 139.734375 116.195312 L 144.980469 116.195312 C 145.164062 116.195312 145.34375 116.121094 145.472656 115.988281 C 145.605469 115.859375 145.679688 115.675781 145.679688 115.492188 L 145.679688 111.546875 C 145.441406 111.609375 145.195312 111.644531 144.941406 111.644531 L 144.277344 111.644531 L 144.277344 114.789062 L 140.433594 114.789062 L 140.433594 111.644531 L 139.769531 111.644531 C 139.515625 111.644531 139.269531 111.609375 139.035156 111.546875 " fill-opacity="1" fill-rule="nonzero"/></g><g clip-path="url(#d383a205d6)"><path fill="#ffffff" d="M 144.941406 104.507812 L 143.054688 104.507812 L 143.054688 105.914062 L 144.941406 105.914062 C 145.332031 105.914062 145.679688 106.070312 145.933594 106.328125 C 146.191406 106.582031 146.347656 106.933594 146.347656 107.324219 L 146.347656 108.828125 C 146.347656 109.222656 146.191406 109.570312 145.933594 109.828125 C 145.679688 110.082031 145.332031 110.238281 144.941406 110.238281 L 139.769531 110.238281 C 139.378906 110.238281 139.03125 110.082031 138.777344 109.828125 C 138.519531 109.570312 138.367188 109.222656 138.367188 108.832031 L 138.367188 107.324219 C 138.367188 106.933594 138.519531 106.585938 138.777344 106.328125 C 139.03125 106.070312 139.378906 105.914062 139.769531 105.914062 L 141.65625 105.914062 L 141.65625 104.507812 L 139.769531 104.507812 C 138.996094 104.507812 138.292969 104.824219 137.789062 105.332031 C 137.28125 105.839844 136.964844 106.546875 136.964844 107.324219 L 138.367188 107.324219 L 136.964844 107.324219 L 136.964844 108.832031 C 136.964844 109.605469 137.28125 110.3125 137.789062 110.820312 C 138.125 111.160156 138.554688 111.414062 139.035156 111.546875 L 139.035156 110.238281 L 140.433594 110.238281 L 140.433594 111.644531 L 144.277344 111.644531 L 144.277344 110.238281 L 145.679688 110.238281 L 145.679688 111.546875 C 146.15625 111.414062 146.585938 111.160156 146.925781 110.820312 C 147.429688 110.3125 147.746094 109.605469 147.746094 108.828125 L 147.746094 107.324219 C 147.746094 106.546875 147.429688 105.839844 146.925781 105.332031 C 146.417969 104.824219 145.714844 104.507812 144.941406 104.507812 " fill-opacity="1" fill-rule="nonzero"/></g><path fill="#ffffff" d="M 143.054688 104.507812 L 141.65625 104.507812 L 141.65625 105.914062 L 143.054688 105.914062 L 143.054688 104.507812 " fill-opacity="1" fill-rule="nonzero"/><path fill="#ffffff" d="M 140.433594 110.238281 L 139.035156 110.238281 L 139.035156 111.546875 C 139.269531 111.609375 139.515625 111.644531 139.769531 111.644531 L 140.433594 111.644531 L 140.433594 110.238281 M 145.679688 110.238281 L 144.277344 110.238281 L 144.277344 111.644531 L 144.941406 111.644531 C 145.195312 111.644531 145.441406 111.609375 145.679688 111.546875 L 145.679688 110.238281 " fill-opacity="1" fill-rule="nonzero"/><path fill="#ffffff" d="M 143.578125 112.09375 L 142.605469 112.09375 L 142.605469 114.289062 L 143.578125 114.289062 L 143.578125 112.09375 " fill-opacity="1" fill-rule="nonzero"/><path fill="#ffffff" d="M 142.105469 112.09375 L 141.132812 112.09375 L 141.132812 114.289062 L 142.105469 114.289062 L 142.105469 112.09375 " fill-opacity="1" fill-rule="nonzero"/><g fill="#ffffff" fill-opacity="1"><g transform="translate(103.213309, 142.479984)"><g><path d="M 11.960938 -10.003906 L 9.808594 -10.003906 L 6.515625 -1.128906 L 3.203125 -10.003906 L 1.023438 -10.003906 L 1.023438 0 L 2.273438 0 L 2.273438 -9.070312 L 5.65625 0 L 7.339844 0 L 10.710938 -9.070312 L 10.710938 0 L 11.960938 0 Z M 11.960938 -10.003906 "/></g></g></g><g fill="#ffffff" fill-opacity="1"><g transform="translate(116.194083, 142.479984)"><g><path d="M 4.511719 0.242188 C 7.039062 0.242188 8.289062 -1.519531 8.289062 -3.777344 C 8.289062 -6.003906 7.039062 -7.761719 4.511719 -7.761719 C 1.96875 -7.761719 0.722656 -6.015625 0.722656 -3.777344 C 0.722656 -1.503906 1.96875 0.242188 4.511719 0.242188 Z M 1.941406 -3.761719 C 1.941406 -5.882812 2.8125 -6.785156 4.511719 -6.785156 C 6.214844 -6.785156 7.070312 -5.882812 7.070312 -3.761719 C 7.070312 -1.65625 6.214844 -0.738281 4.511719 -0.738281 C 2.8125 -0.738281 1.941406 -1.65625 1.941406 -3.761719 Z M 1.941406 -3.761719 "/></g></g></g><g fill="#ffffff" fill-opacity="1"><g transform="translate(125.203913, 142.479984)"><g><path d="M 6.5 -7.523438 L 6.5 -4.648438 C 6.5 -2.152344 5.609375 -0.753906 4.046875 -0.753906 C 2.886719 -0.753906 2.152344 -1.1875 2.152344 -2.859375 L 2.152344 -7.523438 L 0.949219 -7.523438 L 0.949219 -2.722656 C 0.949219 -0.753906 1.804688 0.242188 3.699219 0.242188 C 5.160156 0.242188 6.046875 -0.570312 6.5 -1.910156 L 6.5 0 L 7.703125 0 L 7.703125 -7.523438 Z M 6.5 -7.523438 "/></g></g></g><g fill="#ffffff" fill-opacity="1"><g transform="translate(134.003163, 142.479984)"><g><path d="M 0.570312 -2.511719 C 0.601562 -0.933594 1.59375 0.242188 4.046875 0.242188 C 6.046875 0.242188 7.117188 -0.511719 7.117188 -2.046875 C 7.117188 -3.28125 6.484375 -4.015625 4.753906 -4.273438 L 3.160156 -4.496094 C 2.210938 -4.632812 1.941406 -5.085938 1.941406 -5.609375 C 1.941406 -6.347656 2.46875 -6.859375 3.746094 -6.859375 C 5.128906 -6.859375 5.703125 -6.152344 5.777344 -5.371094 L 6.964844 -5.371094 C 6.875 -6.785156 5.746094 -7.777344 3.777344 -7.777344 C 1.878906 -7.777344 0.765625 -6.921875 0.765625 -5.519531 C 0.765625 -4.363281 1.503906 -3.671875 2.8125 -3.488281 L 4.558594 -3.234375 C 5.507812 -3.097656 5.925781 -2.707031 5.925781 -1.984375 C 5.925781 -1.144531 5.402344 -0.675781 4.078125 -0.675781 C 2.347656 -0.675781 1.773438 -1.488281 1.683594 -2.511719 Z M 0.570312 -2.511719 "/></g></g></g><g fill="#ffffff" fill-opacity="1"><g transform="translate(141.764545, 142.479984)"><g><path d="M 4.496094 -0.675781 C 2.992188 -0.675781 2 -1.429688 1.910156 -3.488281 L 7.957031 -3.488281 C 7.988281 -3.671875 7.988281 -3.820312 7.988281 -4.015625 C 7.988281 -6.214844 6.710938 -7.761719 4.453125 -7.761719 C 1.957031 -7.761719 0.722656 -6.015625 0.722656 -3.777344 C 0.722656 -1.503906 1.867188 0.242188 4.453125 0.242188 C 6.949219 0.242188 7.824219 -1.171875 7.972656 -2.316406 L 6.875 -2.316406 C 6.648438 -1.367188 5.972656 -0.675781 4.496094 -0.675781 Z M 4.46875 -6.84375 C 5.867188 -6.84375 6.753906 -6.121094 6.816406 -4.394531 L 1.941406 -4.394531 C 2.105469 -6.167969 3.039062 -6.84375 4.46875 -6.84375 Z M 4.46875 -6.84375 "/></g></g></g><g fill="#ffffff" fill-opacity="1"><g transform="translate(150.428419, 142.479984)"><g><path d="M 0.570312 -2.511719 C 0.601562 -0.933594 1.59375 0.242188 4.046875 0.242188 C 6.046875 0.242188 7.117188 -0.511719 7.117188 -2.046875 C 7.117188 -3.28125 6.484375 -4.015625 4.753906 -4.273438 L 3.160156 -4.496094 C 2.210938 -4.632812 1.941406 -5.085938 1.941406 -5.609375 C 1.941406 -6.347656 2.46875 -6.859375 3.746094 -6.859375 C 5.128906 -6.859375 5.703125 -6.152344 5.777344 -5.371094 L 6.964844 -5.371094 C 6.875 -6.785156 5.746094 -7.777344 3.777344 -7.777344 C 1.878906 -7.777344 0.765625 -6.921875 0.765625 -5.519531 C 0.765625 -4.363281 1.503906 -3.671875 2.8125 -3.488281 L 4.558594 -3.234375 C 5.507812 -3.097656 5.925781 -2.707031 5.925781 -1.984375 C 5.925781 -1.144531 5.402344 -0.675781 4.078125 -0.675781 C 2.347656 -0.675781 1.773438 -1.488281 1.683594 -2.511719 Z M 0.570312 -2.511719 "/></g></g></g></svg>