<svg xmlns="http://www.w3.org/2000/svg" xmlns:xlink="http://www.w3.org/1999/xlink" width="348" zoomAndPan="magnify" viewBox="0 0 261 228.749995" height="305" preserveAspectRatio="xMidYMid meet" version="1.0"><defs><g/><clipPath id="401911cda6"><path d="M 106.757812 75.585938 L 153.613281 75.585938 L 153.613281 111 L 106.757812 111 Z M 106.757812 75.585938 " clip-rule="nonzero"/></clipPath><clipPath id="25a74f2f42"><path d="M 127 113 L 137 113 L 137 121.1875 L 127 121.1875 Z M 127 113 " clip-rule="nonzero"/></clipPath><clipPath id="faa80962ac"><path d="M 140 105 L 142 105 L 142 121.1875 L 140 121.1875 Z M 140 105 " clip-rule="nonzero"/></clipPath></defs><g clip-path="url(#401911cda6)"><path fill="#ffffff" d="M 140.257812 108.691406 L 133.070312 108.691406 L 133.070312 110.296875 L 140.257812 110.296875 L 140.257812 108.691406 M 122.453125 75.585938 C 122.449219 75.585938 122.449219 75.585938 122.449219 75.585938 C 119.558594 75.585938 116.9375 76.757812 115.042969 78.648438 C 113.148438 80.539062 111.972656 83.160156 111.972656 86.046875 C 111.972656 87.578125 112.304688 89.035156 112.898438 90.34375 C 111.242188 91.113281 109.828125 92.300781 108.777344 93.769531 C 107.558594 95.480469 106.839844 97.574219 106.84375 99.832031 C 106.839844 102.71875 108.015625 105.339844 109.910156 107.230469 C 111.804688 109.121094 114.425781 110.296875 117.316406 110.296875 L 131.464844 110.296875 L 131.464844 108.691406 L 117.316406 108.691406 C 114.867188 108.691406 112.652344 107.703125 111.046875 106.097656 C 109.4375 104.492188 108.449219 102.28125 108.449219 99.832031 C 108.449219 97.917969 109.054688 96.148438 110.085938 94.699219 C 111.121094 93.25 112.578125 92.125 114.277344 91.507812 C 114.5 91.425781 114.671875 91.253906 114.753906 91.03125 C 114.835938 90.8125 114.820312 90.566406 114.703125 90.363281 C 113.988281 89.085938 113.582031 87.617188 113.578125 86.046875 C 113.582031 83.597656 114.570312 81.390625 116.179688 79.78125 C 117.785156 78.179688 120 77.1875 122.449219 77.1875 C 124.320312 77.1875 126.046875 77.761719 127.476562 78.746094 C 128.902344 79.730469 130.03125 81.125 130.683594 82.753906 C 130.769531 82.96875 130.945312 83.136719 131.164062 83.210938 C 131.25 83.242188 131.339844 83.257812 131.429688 83.257812 C 131.566406 83.257812 131.699219 83.222656 131.820312 83.15625 C 132.882812 82.5625 134.101562 82.222656 135.40625 82.222656 C 137.4375 82.222656 139.269531 83.039062 140.601562 84.371094 C 141.929688 85.699219 142.75 87.527344 142.75 89.554688 C 142.75 89.738281 142.742188 89.929688 142.726562 90.125 C 142.710938 90.339844 142.78125 90.550781 142.925781 90.714844 C 143.070312 90.878906 143.269531 90.972656 143.488281 90.984375 L 143.527344 90.183594 L 143.488281 90.984375 C 145.835938 91.097656 147.941406 92.121094 149.464844 93.714844 C 150.988281 95.304688 151.921875 97.457031 151.921875 99.832031 C 151.921875 102.28125 150.929688 104.492188 149.324219 106.097656 C 147.71875 107.703125 145.503906 108.691406 143.050781 108.691406 L 141.863281 108.691406 L 141.863281 110.296875 L 143.050781 110.296875 C 145.941406 110.296875 148.566406 109.125 150.460938 107.230469 C 152.355469 105.339844 153.527344 102.71875 153.527344 99.832031 C 153.527344 97.03125 152.421875 94.480469 150.628906 92.605469 C 149.003906 90.910156 146.808594 89.753906 144.355469 89.449219 C 144.328125 87.027344 143.332031 84.828125 141.734375 83.234375 C 140.121094 81.621094 137.878906 80.617188 135.410156 80.617188 C 135.410156 80.617188 135.410156 80.617188 135.40625 80.617188 C 134.132812 80.617188 132.917969 80.886719 131.820312 81.367188 C 131.023438 79.78125 129.835938 78.425781 128.386719 77.429688 C 126.703125 76.265625 124.652344 75.585938 122.453125 75.585938 " fill-opacity="1" fill-rule="nonzero"/></g><g clip-path="url(#25a74f2f42)"><path fill="#ffffff" d="M 132.265625 118.785156 L 129.90625 114.699219 L 134.628906 114.699219 L 132.265625 118.785156 M 136.019531 113.898438 L 135.324219 113.5 L 136.019531 113.898438 M 136.019531 113.097656 L 133.070312 113.097656 L 133.070312 114.699219 L 131.464844 114.699219 L 131.464844 113.097656 L 128.515625 113.097656 C 128.230469 113.097656 127.964844 113.25 127.820312 113.5 C 127.679688 113.746094 127.679688 114.050781 127.820312 114.300781 L 131.570312 120.789062 C 131.714844 121.035156 131.980469 121.1875 132.265625 121.1875 C 132.554688 121.1875 132.820312 121.035156 132.960938 120.789062 L 136.714844 114.300781 C 136.855469 114.050781 136.855469 113.746094 136.714844 113.5 C 136.570312 113.25 136.304688 113.097656 136.019531 113.097656 " fill-opacity="1" fill-rule="nonzero"/></g><path fill="#ffffff" d="M 141.0625 97.796875 C 140.773438 97.796875 140.511719 97.949219 140.367188 98.199219 L 136.617188 104.6875 C 136.472656 104.933594 136.472656 105.242188 136.617188 105.488281 C 136.757812 105.738281 137.023438 105.890625 137.3125 105.890625 L 140.257812 105.890625 L 140.257812 104.285156 L 138.703125 104.285156 L 141.0625 100.203125 L 143.421875 104.285156 L 141.863281 104.285156 L 141.863281 105.890625 L 144.8125 105.890625 C 145.097656 105.890625 145.363281 105.738281 145.507812 105.488281 C 145.652344 105.242188 145.652344 104.9375 145.507812 104.6875 L 141.757812 98.199219 C 141.613281 97.949219 141.347656 97.796875 141.0625 97.796875 " fill-opacity="1" fill-rule="nonzero"/><path fill="#ffffff" d="M 133.070312 110.296875 L 131.464844 110.296875 L 131.464844 113.097656 L 133.070312 113.097656 L 133.070312 110.296875 M 133.070312 97.796875 L 131.464844 97.796875 L 131.464844 108.691406 L 133.070312 108.691406 L 133.070312 97.796875 " fill-opacity="1" fill-rule="nonzero"/><path fill="#ffffff" d="M 133.070312 108.691406 L 131.464844 108.691406 L 131.464844 110.296875 L 133.070312 110.296875 L 133.070312 108.691406 " fill-opacity="1" fill-rule="nonzero"/><path fill="#ffffff" d="M 133.070312 113.097656 L 131.464844 113.097656 L 131.464844 114.699219 L 133.070312 114.699219 L 133.070312 113.097656 " fill-opacity="1" fill-rule="nonzero"/><g clip-path="url(#faa80962ac)"><path fill="#ffffff" d="M 141.863281 110.296875 L 140.257812 110.296875 L 140.257812 121.1875 L 141.863281 121.1875 L 141.863281 110.296875 M 141.863281 105.890625 L 140.257812 105.890625 L 140.257812 108.691406 L 141.863281 108.691406 L 141.863281 105.890625 " fill-opacity="1" fill-rule="nonzero"/></g><path fill="#ffffff" d="M 141.863281 108.691406 L 140.257812 108.691406 L 140.257812 110.296875 L 141.863281 110.296875 L 141.863281 108.691406 " fill-opacity="1" fill-rule="nonzero"/><path fill="#ffffff" d="M 141.863281 104.285156 L 140.257812 104.285156 L 140.257812 105.890625 L 141.863281 105.890625 L 141.863281 104.285156 " fill-opacity="1" fill-rule="nonzero"/><g fill="#ffffff" fill-opacity="1"><g transform="translate(77.172298, 146.027082)"><g><path d="M 7.828125 0 L 8.960938 0 L 5.558594 -8.976562 L 3.898438 -8.976562 L 0.5 0 L 1.621094 0 L 2.496094 -2.292969 L 6.949219 -2.292969 Z M 2.835938 -3.199219 L 4.722656 -8.164062 L 6.613281 -3.199219 Z M 2.835938 -3.199219 "/></g></g></g><g fill="#ffffff" fill-opacity="1"><g transform="translate(86.604675, 146.027082)"><g><path d="M 4.535156 -6.84375 C 3.253906 -6.84375 2.46875 -6.085938 2.066406 -4.964844 L 2.066406 -6.746094 L 0.984375 -6.746094 L 0.984375 0 L 2.066406 0 L 2.066406 -2.484375 C 2.066406 -4.386719 2.496094 -5.84375 4.496094 -5.777344 L 4.777344 -5.777344 L 4.777344 -6.84375 Z M 4.535156 -6.84375 "/></g></g></g><g fill="#ffffff" fill-opacity="1"><g transform="translate(91.799907, 146.027082)"><g><path d="M 9.257812 -6.964844 C 7.910156 -6.964844 7.125 -6.25 6.734375 -5.0625 C 6.546875 -6.316406 5.832031 -6.964844 4.519531 -6.964844 C 3.226562 -6.964844 2.457031 -6.25 2.066406 -5.089844 L 2.066406 -6.746094 L 0.984375 -6.746094 L 0.984375 0 L 2.066406 0 L 2.066406 -2.578125 C 2.066406 -4.898438 2.738281 -6.058594 4.183594 -6.058594 C 5.167969 -6.058594 5.734375 -5.585938 5.734375 -4.222656 L 5.734375 0 L 6.789062 0 L 6.789062 -2.578125 C 6.789062 -4.898438 7.449219 -6.058594 8.921875 -6.058594 C 9.90625 -6.058594 10.460938 -5.585938 10.460938 -4.222656 L 10.460938 0 L 11.539062 0 L 11.539062 -4.347656 C 11.539062 -6.074219 10.796875 -6.964844 9.257812 -6.964844 Z M 9.257812 -6.964844 "/></g></g></g><g fill="#ffffff" fill-opacity="1"><g transform="translate(104.187492, 146.027082)"><g><path d="M 3.007812 0.175781 C 4.574219 0.175781 5.289062 -0.769531 5.546875 -1.578125 C 5.546875 -1.078125 5.585938 -0.582031 5.640625 0 L 6.625 0 C 6.558594 -0.660156 6.546875 -1.1875 6.546875 -1.671875 L 6.546875 -4.914062 C 6.546875 -6.128906 5.707031 -6.976562 3.859375 -6.976562 C 1.996094 -6.976562 0.984375 -6.058594 0.945312 -4.628906 L 2.011719 -4.628906 C 2.078125 -5.507812 2.578125 -6.128906 3.898438 -6.128906 C 5.210938 -6.128906 5.558594 -5.601562 5.558594 -4.914062 C 5.558594 -4.398438 5.261719 -4.210938 4.546875 -4.089844 L 2.835938 -3.804688 C 1.375 -3.5625 0.78125 -2.875 0.78125 -1.78125 C 0.78125 -0.5 1.714844 0.175781 3.007812 0.175781 Z M 3.226562 -0.675781 C 2.429688 -0.675781 1.875 -1.050781 1.875 -1.820312 C 1.875 -2.550781 2.308594 -2.902344 3.226562 -3.089844 L 4.347656 -3.320312 C 4.859375 -3.429688 5.222656 -3.535156 5.558594 -3.777344 L 5.558594 -3.199219 C 5.558594 -1.917969 4.816406 -0.675781 3.226562 -0.675781 Z M 3.226562 -0.675781 "/></g></g></g><g fill="#ffffff" fill-opacity="1"><g transform="translate(111.582259, 146.027082)"><g><path d="M 2.078125 -0.824219 L 6.640625 -5.925781 L 6.640625 -6.746094 L 0.769531 -6.746094 L 0.769531 -5.925781 L 5.359375 -5.925781 L 0.769531 -0.824219 L 0.769531 0 L 6.707031 0 L 6.707031 -0.824219 Z M 2.078125 -0.824219 "/></g></g></g><g fill="#ffffff" fill-opacity="1"><g transform="translate(118.936548, 146.027082)"><g><path d="M 4.035156 -0.605469 C 2.6875 -0.605469 1.796875 -1.28125 1.714844 -3.132812 L 7.140625 -3.132812 C 7.167969 -3.292969 7.167969 -3.429688 7.167969 -3.601562 C 7.167969 -5.574219 6.019531 -6.964844 3.996094 -6.964844 C 1.753906 -6.964844 0.648438 -5.398438 0.648438 -3.386719 C 0.648438 -1.347656 1.671875 0.214844 3.996094 0.214844 C 6.234375 0.214844 7.019531 -1.050781 7.152344 -2.078125 L 6.167969 -2.078125 C 5.964844 -1.226562 5.359375 -0.605469 4.035156 -0.605469 Z M 4.007812 -6.140625 C 5.261719 -6.140625 6.058594 -5.492188 6.113281 -3.941406 L 1.742188 -3.941406 C 1.890625 -5.535156 2.726562 -6.140625 4.007812 -6.140625 Z M 4.007812 -6.140625 "/></g></g></g><g fill="#ffffff" fill-opacity="1"><g transform="translate(126.709152, 146.027082)"><g><path d="M 4.65625 -6.964844 C 3.320312 -6.964844 2.484375 -6.207031 2.066406 -4.980469 L 2.066406 -6.746094 L 0.984375 -6.746094 L 0.984375 0 L 2.066406 0 L 2.066406 -2.578125 C 2.066406 -4.898438 2.859375 -6.058594 4.359375 -6.058594 C 5.34375 -6.058594 5.980469 -5.628906 5.980469 -4.183594 L 5.980469 0 L 7.058594 0 L 7.058594 -4.304688 C 7.058594 -6.046875 6.34375 -6.964844 4.65625 -6.964844 Z M 4.65625 -6.964844 "/></g></g></g><g fill="#ffffff" fill-opacity="1"><g transform="translate(134.616699, 146.027082)"><g><path d="M 3.007812 0.175781 C 4.574219 0.175781 5.289062 -0.769531 5.546875 -1.578125 C 5.546875 -1.078125 5.585938 -0.582031 5.640625 0 L 6.625 0 C 6.558594 -0.660156 6.546875 -1.1875 6.546875 -1.671875 L 6.546875 -4.914062 C 6.546875 -6.128906 5.707031 -6.976562 3.859375 -6.976562 C 1.996094 -6.976562 0.984375 -6.058594 0.945312 -4.628906 L 2.011719 -4.628906 C 2.078125 -5.507812 2.578125 -6.128906 3.898438 -6.128906 C 5.210938 -6.128906 5.558594 -5.601562 5.558594 -4.914062 C 5.558594 -4.398438 5.261719 -4.210938 4.546875 -4.089844 L 2.835938 -3.804688 C 1.375 -3.5625 0.78125 -2.875 0.78125 -1.78125 C 0.78125 -0.5 1.714844 0.175781 3.007812 0.175781 Z M 3.226562 -0.675781 C 2.429688 -0.675781 1.875 -1.050781 1.875 -1.820312 C 1.875 -2.550781 2.308594 -2.902344 3.226562 -3.089844 L 4.347656 -3.320312 C 4.859375 -3.429688 5.222656 -3.535156 5.558594 -3.777344 L 5.558594 -3.199219 C 5.558594 -1.917969 4.816406 -0.675781 3.226562 -0.675781 Z M 3.226562 -0.675781 "/></g></g></g><g fill="#ffffff" fill-opacity="1"><g transform="translate(142.011466, 146.027082)"><g><path d="M 9.257812 -6.964844 C 7.910156 -6.964844 7.125 -6.25 6.734375 -5.0625 C 6.546875 -6.316406 5.832031 -6.964844 4.519531 -6.964844 C 3.226562 -6.964844 2.457031 -6.25 2.066406 -5.089844 L 2.066406 -6.746094 L 0.984375 -6.746094 L 0.984375 0 L 2.066406 0 L 2.066406 -2.578125 C 2.066406 -4.898438 2.738281 -6.058594 4.183594 -6.058594 C 5.167969 -6.058594 5.734375 -5.585938 5.734375 -4.222656 L 5.734375 0 L 6.789062 0 L 6.789062 -2.578125 C 6.789062 -4.898438 7.449219 -6.058594 8.921875 -6.058594 C 9.90625 -6.058594 10.460938 -5.585938 10.460938 -4.222656 L 10.460938 0 L 11.539062 0 L 11.539062 -4.347656 C 11.539062 -6.074219 10.796875 -6.964844 9.257812 -6.964844 Z M 9.257812 -6.964844 "/></g></g></g><g fill="#ffffff" fill-opacity="1"><g transform="translate(154.399051, 146.027082)"><g><path d="M 4.035156 -0.605469 C 2.6875 -0.605469 1.796875 -1.28125 1.714844 -3.132812 L 7.140625 -3.132812 C 7.167969 -3.292969 7.167969 -3.429688 7.167969 -3.601562 C 7.167969 -5.574219 6.019531 -6.964844 3.996094 -6.964844 C 1.753906 -6.964844 0.648438 -5.398438 0.648438 -3.386719 C 0.648438 -1.347656 1.671875 0.214844 3.996094 0.214844 C 6.234375 0.214844 7.019531 -1.050781 7.152344 -2.078125 L 6.167969 -2.078125 C 5.964844 -1.226562 5.359375 -0.605469 4.035156 -0.605469 Z M 4.007812 -6.140625 C 5.261719 -6.140625 6.058594 -5.492188 6.113281 -3.941406 L 1.742188 -3.941406 C 1.890625 -5.535156 2.726562 -6.140625 4.007812 -6.140625 Z M 4.007812 -6.140625 "/></g></g></g><g fill="#ffffff" fill-opacity="1"><g transform="translate(162.171655, 146.027082)"><g><path d="M 4.65625 -6.964844 C 3.320312 -6.964844 2.484375 -6.207031 2.066406 -4.980469 L 2.066406 -6.746094 L 0.984375 -6.746094 L 0.984375 0 L 2.066406 0 L 2.066406 -2.578125 C 2.066406 -4.898438 2.859375 -6.058594 4.359375 -6.058594 C 5.34375 -6.058594 5.980469 -5.628906 5.980469 -4.183594 L 5.980469 0 L 7.058594 0 L 7.058594 -4.304688 C 7.058594 -6.046875 6.34375 -6.964844 4.65625 -6.964844 Z M 4.65625 -6.964844 "/></g></g></g><g fill="#ffffff" fill-opacity="1"><g transform="translate(170.079202, 146.027082)"><g><path d="M 3.183594 0 L 4.777344 0 L 4.777344 -0.878906 L 2.632812 -0.878906 L 2.632812 -5.898438 L 4.859375 -5.898438 L 4.859375 -6.746094 L 2.632812 -6.746094 L 2.632812 -8.246094 L 2.050781 -8.246094 L 1.648438 -6.84375 L 0.269531 -6.503906 L 0.269531 -5.898438 L 1.550781 -5.898438 L 1.550781 -1.578125 C 1.550781 -0.5 1.890625 0 3.183594 0 Z M 3.183594 0 "/></g></g></g><g fill="#ffffff" fill-opacity="1"><g transform="translate(175.35539, 146.027082)"><g><path d="M 4.046875 0.214844 C 6.316406 0.214844 7.4375 -1.363281 7.4375 -3.386719 C 7.4375 -5.386719 6.316406 -6.964844 4.046875 -6.964844 C 1.769531 -6.964844 0.648438 -5.398438 0.648438 -3.386719 C 0.648438 -1.347656 1.769531 0.214844 4.046875 0.214844 Z M 1.742188 -3.375 C 1.742188 -5.277344 2.523438 -6.085938 4.046875 -6.085938 C 5.574219 -6.085938 6.34375 -5.277344 6.34375 -3.375 C 6.34375 -1.484375 5.574219 -0.660156 4.046875 -0.660156 C 2.523438 -0.660156 1.742188 -1.484375 1.742188 -3.375 Z M 1.742188 -3.375 "/></g></g></g></svg>