<svg xmlns="http://www.w3.org/2000/svg" xmlns:xlink="http://www.w3.org/1999/xlink" width="348" zoomAndPan="magnify" viewBox="0 0 261 224.249992" height="299" preserveAspectRatio="xMidYMid meet" version="1.0"><defs><g/><clipPath id="bdca8f5433"><path d="M 113 75.203125 L 148 75.203125 L 148 102 L 113 102 Z M 113 75.203125 " clip-rule="nonzero"/></clipPath><clipPath id="125adcdab6"><path d="M 147 101 L 151.894531 101 L 151.894531 113 L 147 113 Z M 147 101 " clip-rule="nonzero"/></clipPath><clipPath id="4df010b419"><path d="M 109.507812 101 L 114 101 L 114 113 L 109.507812 113 Z M 109.507812 101 " clip-rule="nonzero"/></clipPath><clipPath id="aa26e82e57"><path d="M 138 97 L 148 97 L 148 116.964844 L 138 116.964844 Z M 138 97 " clip-rule="nonzero"/></clipPath><clipPath id="0e48986a52"><path d="M 113 97 L 123 97 L 123 116.964844 L 113 116.964844 Z M 113 97 " clip-rule="nonzero"/></clipPath></defs><g clip-path="url(#bdca8f5433)"><path fill="#ffffff" d="M 130.710938 75.214844 C 130.710938 75.214844 130.707031 75.214844 130.707031 75.214844 C 126.097656 75.214844 121.914062 77.09375 118.890625 80.121094 C 115.867188 83.148438 113.996094 87.339844 113.996094 91.960938 L 113.996094 101.664062 C 114.003906 100.496094 114.484375 99.433594 115.25 98.667969 C 115.363281 98.554688 115.480469 98.445312 115.605469 98.347656 L 115.605469 91.960938 C 115.609375 87.78125 117.296875 84.003906 120.03125 81.261719 C 122.765625 78.523438 126.535156 76.832031 130.707031 76.832031 C 134.882812 76.832031 138.652344 78.523438 141.386719 81.261719 C 144.121094 84.003906 145.808594 87.78125 145.8125 91.960938 L 145.8125 98.347656 C 145.9375 98.445312 146.054688 98.554688 146.167969 98.667969 C 146.933594 99.433594 147.414062 100.496094 147.421875 101.664062 L 147.421875 91.960938 C 147.421875 87.339844 145.550781 83.148438 142.527344 80.121094 C 139.503906 77.09375 135.320312 75.214844 130.710938 75.214844 " fill-opacity="1" fill-rule="nonzero"/></g><g clip-path="url(#125adcdab6)"><path fill="#ffffff" d="M 147.421875 101.664062 L 147.421875 103.304688 C 148.113281 103.460938 148.726562 103.808594 149.214844 104.292969 C 149.878906 104.964844 150.289062 105.878906 150.289062 106.898438 C 150.289062 107.917969 149.878906 108.832031 149.214844 109.5 C 148.726562 109.988281 148.113281 110.335938 147.421875 110.492188 L 147.421875 112.132812 C 148.558594 111.957031 149.578125 111.417969 150.351562 110.640625 C 151.308594 109.6875 151.902344 108.355469 151.902344 106.898438 C 151.902344 105.4375 151.308594 104.109375 150.351562 103.152344 C 149.578125 102.375 148.558594 101.839844 147.421875 101.664062 " fill-opacity="1" fill-rule="nonzero"/></g><g clip-path="url(#4df010b419)"><path fill="#ffffff" d="M 113.996094 101.664062 C 112.859375 101.839844 111.839844 102.375 111.0625 103.152344 C 110.109375 104.109375 109.515625 105.4375 109.515625 106.898438 C 109.515625 108.355469 110.109375 109.6875 111.0625 110.640625 C 111.839844 111.417969 112.859375 111.957031 113.996094 112.132812 L 113.996094 110.492188 C 113.304688 110.335938 112.6875 109.984375 112.203125 109.5 C 111.535156 108.832031 111.128906 107.917969 111.128906 106.898438 C 111.128906 105.878906 111.535156 104.964844 112.203125 104.292969 C 112.6875 103.808594 113.304688 103.460938 113.996094 103.304688 L 113.996094 101.664062 " fill-opacity="1" fill-rule="nonzero"/></g><g clip-path="url(#aa26e82e57)"><path fill="#ffffff" d="M 147.421875 112.132812 C 147.160156 112.171875 146.890625 112.191406 146.617188 112.191406 L 145.808594 112.191406 L 145.808594 112.664062 L 147.421875 112.664062 L 147.421875 112.132812 M 147.421875 103.304688 L 147.421875 103.394531 L 145.808594 103.394531 L 145.808594 110.578125 L 146.617188 110.578125 C 146.894531 110.578125 147.164062 110.546875 147.421875 110.492188 L 147.421875 103.304688 M 143.144531 97.410156 C 141.964844 97.410156 140.890625 97.890625 140.117188 98.667969 C 139.34375 99.441406 138.863281 100.515625 138.863281 101.699219 L 138.863281 112.664062 C 138.863281 113.84375 139.34375 114.921875 140.117188 115.695312 C 140.890625 116.46875 141.964844 116.949219 143.140625 116.949219 C 143.140625 116.949219 143.144531 116.949219 143.144531 116.949219 C 144.320312 116.949219 145.394531 116.46875 146.167969 115.695312 C 146.941406 114.921875 147.421875 113.84375 147.421875 112.664062 L 145.808594 112.664062 C 145.808594 113.402344 145.511719 114.066406 145.027344 114.550781 C 144.542969 115.039062 143.882812 115.335938 143.144531 115.335938 C 142.402344 115.335938 141.742188 115.039062 141.257812 114.554688 C 140.773438 114.066406 140.476562 113.402344 140.476562 112.664062 L 140.476562 101.699219 C 140.476562 100.957031 140.773438 100.292969 141.257812 99.808594 C 141.742188 99.324219 142.402344 99.027344 143.144531 99.027344 C 143.882812 99.027344 144.542969 99.324219 145.027344 99.808594 C 145.511719 100.292969 145.808594 100.957031 145.808594 101.699219 L 145.808594 98.347656 C 145.078125 97.761719 144.148438 97.410156 143.144531 97.410156 " fill-opacity="1" fill-rule="nonzero"/></g><path fill="#ffffff" d="M 146.617188 103.214844 L 145.808594 103.214844 L 145.808594 103.394531 L 147.421875 103.394531 L 147.421875 103.304688 C 147.164062 103.246094 146.894531 103.214844 146.617188 103.214844 M 145.808594 98.347656 L 145.808594 101.699219 L 145.808594 101.601562 L 146.617188 101.601562 C 146.890625 101.601562 147.160156 101.625 147.421875 101.664062 C 147.414062 100.496094 146.933594 99.433594 146.167969 98.667969 C 146.054688 98.554688 145.9375 98.445312 145.808594 98.347656 " fill-opacity="1" fill-rule="nonzero"/><path fill="#ffffff" d="M 147.421875 110.492188 C 147.164062 110.546875 146.894531 110.578125 146.617188 110.578125 L 145.808594 110.578125 L 145.808594 112.191406 L 146.617188 112.191406 C 146.890625 112.191406 147.160156 112.171875 147.421875 112.132812 L 147.421875 110.492188 " fill-opacity="1" fill-rule="nonzero"/><path fill="#ffffff" d="M 146.617188 101.601562 L 145.808594 101.601562 L 145.808594 103.214844 L 146.617188 103.214844 C 146.894531 103.214844 147.164062 103.246094 147.421875 103.304688 L 147.421875 101.699219 C 147.421875 101.6875 147.421875 101.675781 147.421875 101.664062 C 147.160156 101.625 146.890625 101.601562 146.617188 101.601562 " fill-opacity="1" fill-rule="nonzero"/><g clip-path="url(#0e48986a52)"><path fill="#ffffff" d="M 118.273438 97.410156 C 117.269531 97.410156 116.335938 97.761719 115.605469 98.347656 L 115.605469 103.394531 L 113.996094 103.394531 L 113.996094 110.492188 C 114.253906 110.546875 114.523438 110.578125 114.800781 110.578125 L 115.605469 110.578125 L 115.605469 112.191406 L 114.800781 112.191406 C 114.527344 112.191406 114.257812 112.171875 113.996094 112.132812 L 113.996094 112.664062 C 113.996094 113.84375 114.476562 114.921875 115.25 115.695312 C 116.019531 116.46875 117.09375 116.949219 118.273438 116.949219 C 119.453125 116.949219 120.527344 116.46875 121.300781 115.695312 C 122.070312 114.921875 122.550781 113.84375 122.550781 112.664062 L 120.941406 112.664062 C 120.941406 113.402344 120.644531 114.066406 120.160156 114.550781 C 119.675781 115.039062 119.011719 115.335938 118.273438 115.335938 C 117.535156 115.335938 116.875 115.039062 116.386719 114.550781 C 115.902344 114.066406 115.605469 113.402344 115.605469 112.664062 L 115.605469 101.699219 C 115.605469 100.957031 115.902344 100.292969 116.386719 99.808594 C 116.875 99.324219 117.535156 99.027344 118.273438 99.027344 C 119.011719 99.027344 119.675781 99.324219 120.160156 99.808594 C 120.644531 100.292969 120.941406 100.957031 120.941406 101.699219 L 120.941406 112.664062 L 122.550781 112.664062 L 122.550781 101.699219 C 122.550781 100.515625 122.070312 99.441406 121.300781 98.667969 C 120.527344 97.894531 119.453125 97.410156 118.273438 97.410156 " fill-opacity="1" fill-rule="nonzero"/></g><path fill="#ffffff" d="M 115.605469 103.214844 L 114.800781 103.214844 C 114.523438 103.214844 114.253906 103.246094 113.996094 103.304688 L 113.996094 103.394531 L 115.605469 103.394531 L 115.605469 103.214844 M 115.605469 98.347656 C 115.480469 98.445312 115.363281 98.554688 115.25 98.667969 C 114.484375 99.433594 114.003906 100.496094 113.996094 101.664062 C 114.257812 101.625 114.527344 101.601562 114.800781 101.601562 L 115.605469 101.601562 L 115.605469 98.347656 " fill-opacity="1" fill-rule="nonzero"/><path fill="#ffffff" d="M 113.996094 110.492188 L 113.996094 112.132812 C 114.257812 112.171875 114.527344 112.191406 114.800781 112.191406 L 115.605469 112.191406 L 115.605469 110.578125 L 114.800781 110.578125 C 114.523438 110.578125 114.253906 110.546875 113.996094 110.492188 " fill-opacity="1" fill-rule="nonzero"/><path fill="#ffffff" d="M 115.605469 101.601562 L 114.800781 101.601562 C 114.527344 101.601562 114.257812 101.625 113.996094 101.664062 C 113.996094 101.675781 113.996094 101.6875 113.996094 101.699219 L 113.996094 103.304688 C 114.253906 103.246094 114.523438 103.214844 114.800781 103.214844 L 115.605469 103.214844 L 115.605469 101.601562 " fill-opacity="1" fill-rule="nonzero"/><g fill="#ffffff" fill-opacity="1"><g transform="translate(78.783041, 141.381898)"><g><path d="M 7.527344 -8.050781 L 7.527344 -8.953125 L 0.914062 -8.953125 L 0.914062 0 L 2.035156 0 L 2.035156 -4.09375 L 7.125 -4.09375 L 7.125 -4.980469 L 2.035156 -4.980469 L 2.035156 -8.050781 Z M 7.527344 -8.050781 "/></g></g></g><g fill="#ffffff" fill-opacity="1"><g transform="translate(87.049831, 141.381898)"><g><path d="M 4.039062 0.214844 C 6.300781 0.214844 7.417969 -1.359375 7.417969 -3.378906 C 7.417969 -5.371094 6.300781 -6.949219 4.039062 -6.949219 C 1.765625 -6.949219 0.644531 -5.386719 0.644531 -3.378906 C 0.644531 -1.347656 1.765625 0.214844 4.039062 0.214844 Z M 1.738281 -3.367188 C 1.738281 -5.265625 2.519531 -6.074219 4.039062 -6.074219 C 5.5625 -6.074219 6.328125 -5.265625 6.328125 -3.367188 C 6.328125 -1.480469 5.5625 -0.660156 4.039062 -0.660156 C 2.519531 -0.660156 1.738281 -1.480469 1.738281 -3.367188 Z M 1.738281 -3.367188 "/></g></g></g><g fill="#ffffff" fill-opacity="1"><g transform="translate(95.11466, 141.381898)"><g><path d="M 4.644531 -6.949219 C 3.3125 -6.949219 2.476562 -6.195312 2.058594 -4.96875 L 2.058594 -6.734375 L 0.984375 -6.734375 L 0.984375 0 L 2.058594 0 L 2.058594 -2.570312 C 2.058594 -4.886719 2.855469 -6.046875 4.347656 -6.046875 C 5.332031 -6.046875 5.964844 -5.613281 5.964844 -4.175781 L 5.964844 0 L 7.042969 0 L 7.042969 -4.296875 C 7.042969 -6.03125 6.328125 -6.949219 4.644531 -6.949219 Z M 4.644531 -6.949219 "/></g></g></g><g fill="#ffffff" fill-opacity="1"><g transform="translate(103.004462, 141.381898)"><g><path d="M 4.027344 -0.605469 C 2.679688 -0.605469 1.789062 -1.277344 1.710938 -3.125 L 7.125 -3.125 C 7.148438 -3.285156 7.148438 -3.421875 7.148438 -3.59375 C 7.148438 -5.5625 6.003906 -6.949219 3.984375 -6.949219 C 1.75 -6.949219 0.644531 -5.386719 0.644531 -3.378906 C 0.644531 -1.347656 1.667969 0.214844 3.984375 0.214844 C 6.222656 0.214844 7.003906 -1.050781 7.136719 -2.074219 L 6.152344 -2.074219 C 5.953125 -1.226562 5.347656 -0.605469 4.027344 -0.605469 Z M 4 -6.125 C 5.25 -6.125 6.046875 -5.480469 6.101562 -3.933594 L 1.738281 -3.933594 C 1.886719 -5.519531 2.71875 -6.125 4 -6.125 Z M 4 -6.125 "/></g></g></g><g fill="#ffffff" fill-opacity="1"><g transform="translate(110.759623, 141.381898)"><g><path d="M 0.511719 -2.25 C 0.539062 -0.835938 1.425781 0.214844 3.621094 0.214844 C 5.414062 0.214844 6.371094 -0.457031 6.371094 -1.832031 C 6.371094 -2.933594 5.804688 -3.59375 4.253906 -3.824219 L 2.828125 -4.027344 C 1.980469 -4.148438 1.738281 -4.550781 1.738281 -5.023438 C 1.738281 -5.683594 2.207031 -6.140625 3.351562 -6.140625 C 4.59375 -6.140625 5.105469 -5.507812 5.171875 -4.808594 L 6.234375 -4.808594 C 6.152344 -6.074219 5.144531 -6.960938 3.378906 -6.960938 C 1.683594 -6.960938 0.6875 -6.195312 0.6875 -4.941406 C 0.6875 -3.90625 1.347656 -3.285156 2.519531 -3.125 L 4.082031 -2.894531 C 4.929688 -2.773438 5.304688 -2.425781 5.304688 -1.777344 C 5.304688 -1.023438 4.835938 -0.605469 3.648438 -0.605469 C 2.101562 -0.605469 1.589844 -1.332031 1.507812 -2.25 Z M 0.511719 -2.25 "/></g></g></g><g fill="#ffffff" fill-opacity="1"><g transform="translate(117.706953, 141.381898)"><g/></g></g><g fill="#ffffff" fill-opacity="1"><g transform="translate(120.736315, 141.381898)"><g><path d="M 6.289062 -9.425781 L 6.289062 -5.453125 C 5.832031 -6.410156 4.980469 -6.949219 3.742188 -6.949219 C 1.628906 -6.949219 0.660156 -5.441406 0.660156 -3.367188 C 0.660156 -1.304688 1.628906 0.214844 3.742188 0.214844 C 4.980469 0.214844 5.832031 -0.335938 6.289062 -1.292969 L 6.289062 0 L 7.367188 0 L 7.367188 -9.425781 Z M 3.957031 -0.660156 C 2.425781 -0.660156 1.75 -1.5625 1.75 -3.367188 C 1.75 -5.183594 2.425781 -6.074219 3.957031 -6.074219 C 5.386719 -6.074219 6.289062 -5.265625 6.289062 -3.367188 C 6.289062 -1.46875 5.386719 -0.660156 3.957031 -0.660156 Z M 3.957031 -0.660156 "/></g></g></g><g fill="#ffffff" fill-opacity="1"><g transform="translate(129.056959, 141.381898)"><g><path d="M 4.027344 -0.605469 C 2.679688 -0.605469 1.789062 -1.277344 1.710938 -3.125 L 7.125 -3.125 C 7.148438 -3.285156 7.148438 -3.421875 7.148438 -3.59375 C 7.148438 -5.5625 6.003906 -6.949219 3.984375 -6.949219 C 1.75 -6.949219 0.644531 -5.386719 0.644531 -3.378906 C 0.644531 -1.347656 1.667969 0.214844 3.984375 0.214844 C 6.222656 0.214844 7.003906 -1.050781 7.136719 -2.074219 L 6.152344 -2.074219 C 5.953125 -1.226562 5.347656 -0.605469 4.027344 -0.605469 Z M 4 -6.125 C 5.25 -6.125 6.046875 -5.480469 6.101562 -3.933594 L 1.738281 -3.933594 C 1.886719 -5.519531 2.71875 -6.125 4 -6.125 Z M 4 -6.125 "/></g></g></g><g fill="#ffffff" fill-opacity="1"><g transform="translate(136.81212, 141.381898)"><g/></g></g><g fill="#ffffff" fill-opacity="1"><g transform="translate(139.841483, 141.381898)"><g><path d="M 4.039062 0.214844 C 6.300781 0.214844 7.417969 -1.359375 7.417969 -3.378906 C 7.417969 -5.371094 6.300781 -6.949219 4.039062 -6.949219 C 1.765625 -6.949219 0.644531 -5.386719 0.644531 -3.378906 C 0.644531 -1.347656 1.765625 0.214844 4.039062 0.214844 Z M 1.738281 -3.367188 C 1.738281 -5.265625 2.519531 -6.074219 4.039062 -6.074219 C 5.5625 -6.074219 6.328125 -5.265625 6.328125 -3.367188 C 6.328125 -1.480469 5.5625 -0.660156 4.039062 -0.660156 C 2.519531 -0.660156 1.738281 -1.480469 1.738281 -3.367188 Z M 1.738281 -3.367188 "/></g></g></g><g fill="#ffffff" fill-opacity="1"><g transform="translate(147.906312, 141.381898)"><g><path d="M 5.816406 -6.734375 L 5.816406 -4.160156 C 5.816406 -1.925781 5.023438 -0.671875 3.621094 -0.671875 C 2.585938 -0.671875 1.925781 -1.0625 1.925781 -2.558594 L 1.925781 -6.734375 L 0.847656 -6.734375 L 0.847656 -2.4375 C 0.847656 -0.671875 1.617188 0.214844 3.3125 0.214844 C 4.617188 0.214844 5.414062 -0.511719 5.816406 -1.710938 L 5.816406 0 L 6.894531 0 L 6.894531 -6.734375 Z M 5.816406 -6.734375 "/></g></g></g><g fill="#ffffff" fill-opacity="1"><g transform="translate(155.782647, 141.381898)"><g><path d="M 6.003906 -6.734375 L 3.730469 -0.941406 L 1.46875 -6.734375 L 0.335938 -6.734375 L 2.988281 0 L 4.417969 0 L 7.070312 -6.734375 Z M 6.003906 -6.734375 "/></g></g></g><g fill="#ffffff" fill-opacity="1"><g transform="translate(163.174287, 141.381898)"><g><path d="M 0.835938 -7.835938 L 2.222656 -7.835938 L 2.222656 -8.953125 L 0.835938 -8.953125 Z M 0.984375 0 L 2.058594 0 L 2.058594 -6.734375 L 0.984375 -6.734375 Z M 0.984375 0 "/></g></g></g><g fill="#ffffff" fill-opacity="1"><g transform="translate(166.23057, 141.381898)"><g><path d="M 6.289062 -9.425781 L 6.289062 -5.453125 C 5.832031 -6.410156 4.980469 -6.949219 3.742188 -6.949219 C 1.628906 -6.949219 0.660156 -5.441406 0.660156 -3.367188 C 0.660156 -1.304688 1.628906 0.214844 3.742188 0.214844 C 4.980469 0.214844 5.832031 -0.335938 6.289062 -1.292969 L 6.289062 0 L 7.367188 0 L 7.367188 -9.425781 Z M 3.957031 -0.660156 C 2.425781 -0.660156 1.75 -1.5625 1.75 -3.367188 C 1.75 -5.183594 2.425781 -6.074219 3.957031 -6.074219 C 5.386719 -6.074219 6.289062 -5.265625 6.289062 -3.367188 C 6.289062 -1.46875 5.386719 -0.660156 3.957031 -0.660156 Z M 3.957031 -0.660156 "/></g></g></g><g fill="#ffffff" fill-opacity="1"><g transform="translate(174.551214, 141.381898)"><g><path d="M 4.039062 0.214844 C 6.300781 0.214844 7.417969 -1.359375 7.417969 -3.378906 C 7.417969 -5.371094 6.300781 -6.949219 4.039062 -6.949219 C 1.765625 -6.949219 0.644531 -5.386719 0.644531 -3.378906 C 0.644531 -1.347656 1.765625 0.214844 4.039062 0.214844 Z M 1.738281 -3.367188 C 1.738281 -5.265625 2.519531 -6.074219 4.039062 -6.074219 C 5.5625 -6.074219 6.328125 -5.265625 6.328125 -3.367188 C 6.328125 -1.480469 5.5625 -0.660156 4.039062 -0.660156 C 2.519531 -0.660156 1.738281 -1.480469 1.738281 -3.367188 Z M 1.738281 -3.367188 "/></g></g></g></svg>