<svg xmlns="http://www.w3.org/2000/svg" xmlns:xlink="http://www.w3.org/1999/xlink" width="348" zoomAndPan="magnify" viewBox="0 0 261 217.499994" height="290" preserveAspectRatio="xMidYMid meet" version="1.0"><defs><g/><clipPath id="20763c9a6f"><path d="M 110.035156 74.976562 L 151.21875 74.976562 L 151.21875 102 L 110.035156 102 Z M 110.035156 74.976562 " clip-rule="nonzero"/></clipPath><clipPath id="a70ea20218"><path d="M 110.035156 97 L 151.21875 97 L 151.21875 99 L 110.035156 99 Z M 110.035156 97 " clip-rule="nonzero"/></clipPath><clipPath id="6b72fb309e"><path d="M 117 104 L 145 104 L 145 108.046875 L 117 108.046875 Z M 117 104 " clip-rule="nonzero"/></clipPath></defs><path fill="#ffffff" d="M 114.679688 98.164062 L 114.679688 79.746094 C 114.679688 79.550781 114.757812 79.378906 114.886719 79.25 C 115.015625 79.121094 115.191406 79.042969 115.386719 79.042969 L 145.867188 79.042969 C 146.066406 79.042969 146.238281 79.121094 146.367188 79.25 C 146.496094 79.378906 146.574219 79.550781 146.574219 79.746094 L 146.574219 98.863281 L 147.988281 98.863281 L 147.988281 79.746094 C 147.988281 79.167969 147.75 78.636719 147.367188 78.257812 C 146.984375 77.878906 146.449219 77.644531 145.867188 77.644531 L 115.386719 77.644531 C 114.804688 77.644531 114.269531 77.878906 113.886719 78.257812 C 113.503906 78.636719 113.265625 79.167969 113.265625 79.746094 L 113.265625 98.863281 L 114.679688 98.863281 L 114.679688 98.164062 " fill-opacity="1" fill-rule="nonzero"/><path fill="#ffffff" d="M 135.351562 101.523438 L 133.9375 101.523438 L 133.9375 104.328125 L 135.351562 104.328125 L 135.351562 101.523438 " fill-opacity="1" fill-rule="nonzero"/><path fill="#ffffff" d="M 127.316406 101.523438 L 125.902344 101.523438 L 125.902344 104.328125 L 127.316406 104.328125 L 127.316406 101.523438 " fill-opacity="1" fill-rule="nonzero"/><g clip-path="url(#20763c9a6f)"><path fill="#ffffff" d="M 151.195312 98.863281 L 149.78125 98.863281 L 149.78125 99.003906 L 151.195312 99.003906 L 151.195312 98.863281 M 148.652344 74.980469 C 148.652344 74.980469 148.648438 74.980469 148.648438 74.980469 L 112.605469 74.980469 C 111.902344 74.980469 111.261719 75.265625 110.804688 75.71875 C 110.34375 76.175781 110.058594 76.808594 110.058594 77.503906 L 110.058594 99.003906 C 110.058594 99.699219 110.34375 100.332031 110.804688 100.785156 C 111.261719 101.242188 111.902344 101.523438 112.601562 101.523438 C 112.601562 101.523438 112.605469 101.523438 112.605469 101.523438 L 125.902344 101.523438 L 125.902344 100.125 L 127.316406 100.125 L 127.316406 101.523438 L 133.9375 101.523438 L 133.9375 100.125 L 135.351562 100.125 L 135.351562 101.523438 L 148.648438 101.523438 C 149.351562 101.523438 149.992188 101.242188 150.449219 100.785156 C 150.910156 100.332031 151.195312 99.699219 151.195312 99.003906 L 149.78125 99.003906 C 149.78125 99.316406 149.65625 99.589844 149.449219 99.796875 C 149.242188 100 148.964844 100.125 148.648438 100.125 L 112.605469 100.125 C 112.289062 100.125 112.011719 100 111.804688 99.796875 C 111.597656 99.589844 111.472656 99.316406 111.472656 99.003906 L 111.472656 98.863281 L 110.058594 98.863281 L 110.058594 97.464844 L 111.472656 97.464844 L 111.472656 77.503906 C 111.472656 77.191406 111.597656 76.914062 111.804688 76.710938 C 112.011719 76.507812 112.289062 76.382812 112.605469 76.382812 L 148.648438 76.382812 C 148.964844 76.382812 149.242188 76.507812 149.449219 76.710938 C 149.65625 76.914062 149.78125 77.191406 149.78125 77.503906 L 149.78125 97.464844 L 151.195312 97.464844 L 151.195312 77.503906 C 151.195312 76.808594 150.910156 76.175781 150.449219 75.71875 C 149.992188 75.265625 149.351562 74.980469 148.652344 74.980469 " fill-opacity="1" fill-rule="nonzero"/></g><path fill="#ffffff" d="M 135.351562 100.125 L 133.9375 100.125 L 133.9375 101.523438 L 135.351562 101.523438 L 135.351562 100.125 " fill-opacity="1" fill-rule="nonzero"/><path fill="#ffffff" d="M 127.316406 100.125 L 125.902344 100.125 L 125.902344 101.523438 L 127.316406 101.523438 L 127.316406 100.125 " fill-opacity="1" fill-rule="nonzero"/><path fill="#ffffff" d="M 113.265625 97.464844 L 111.472656 97.464844 L 111.472656 98.863281 L 113.265625 98.863281 L 113.265625 97.464844 M 146.574219 97.464844 L 114.679688 97.464844 L 114.679688 98.863281 L 146.574219 98.863281 L 146.574219 97.464844 M 149.78125 97.464844 L 147.988281 97.464844 L 147.988281 98.863281 L 149.78125 98.863281 L 149.78125 97.464844 " fill-opacity="1" fill-rule="nonzero"/><path fill="#ffffff" d="M 114.679688 97.464844 L 113.265625 97.464844 L 113.265625 98.863281 L 114.679688 98.863281 L 114.679688 97.464844 M 147.988281 97.464844 L 146.574219 97.464844 L 146.574219 98.863281 L 147.988281 98.863281 L 147.988281 97.464844 " fill-opacity="1" fill-rule="nonzero"/><g clip-path="url(#a70ea20218)"><path fill="#ffffff" d="M 111.472656 97.464844 L 110.058594 97.464844 L 110.058594 98.863281 L 111.472656 98.863281 L 111.472656 97.464844 M 151.195312 97.464844 L 149.78125 97.464844 L 149.78125 98.863281 L 151.195312 98.863281 L 151.195312 97.464844 " fill-opacity="1" fill-rule="nonzero"/></g><g clip-path="url(#6b72fb309e)"><path fill="#ffffff" d="M 133.9375 104.328125 L 127.316406 104.328125 L 127.316406 105.726562 L 133.9375 105.726562 L 133.9375 104.328125 M 143.429688 104.328125 L 135.351562 104.328125 L 135.351562 105.726562 L 142.722656 105.726562 L 142.722656 106.652344 L 118.53125 106.652344 L 118.53125 105.726562 L 125.902344 105.726562 L 125.902344 104.328125 L 117.824219 104.328125 C 117.636719 104.328125 117.457031 104.402344 117.324219 104.53125 C 117.191406 104.660156 117.117188 104.84375 117.117188 105.027344 L 117.117188 107.351562 C 117.117188 107.535156 117.191406 107.714844 117.324219 107.847656 C 117.457031 107.976562 117.636719 108.050781 117.824219 108.050781 L 143.429688 108.050781 C 143.617188 108.050781 143.796875 107.976562 143.929688 107.847656 C 144.0625 107.714844 144.136719 107.535156 144.136719 107.351562 L 143.429688 107.351562 L 143.429688 106.652344 L 143.429688 107.351562 L 144.136719 107.351562 L 144.136719 105.027344 C 144.136719 104.84375 144.0625 104.660156 143.929688 104.53125 C 143.796875 104.402344 143.617188 104.328125 143.429688 104.328125 " fill-opacity="1" fill-rule="nonzero"/></g><path fill="#ffffff" d="M 135.351562 104.328125 L 133.9375 104.328125 L 133.9375 105.726562 L 135.351562 105.726562 L 135.351562 104.328125 " fill-opacity="1" fill-rule="nonzero"/><path fill="#ffffff" d="M 127.316406 104.328125 L 125.902344 104.328125 L 125.902344 105.726562 L 127.316406 105.726562 L 127.316406 104.328125 " fill-opacity="1" fill-rule="nonzero"/><g fill="#ffffff" fill-opacity="1"><g transform="translate(94.872419, 137.113654)"><g><path d="M 11.945312 -9.992188 L 9.796875 -9.992188 L 6.507812 -1.125 L 3.199219 -9.992188 L 1.023438 -9.992188 L 1.023438 0 L 2.269531 0 L 2.269531 -9.058594 L 5.648438 0 L 7.332031 0 L 10.699219 -9.058594 L 10.699219 0 L 11.945312 0 Z M 11.945312 -9.992188 "/></g></g></g><g fill="#ffffff" fill-opacity="1"><g transform="translate(107.837955, 137.113654)"><g><path d="M 4.507812 0.242188 C 7.03125 0.242188 8.277344 -1.519531 8.277344 -3.769531 C 8.277344 -5.996094 7.03125 -7.753906 4.507812 -7.753906 C 1.96875 -7.753906 0.722656 -6.011719 0.722656 -3.769531 C 0.722656 -1.503906 1.96875 0.242188 4.507812 0.242188 Z M 1.9375 -3.757812 C 1.9375 -5.875 2.808594 -6.777344 4.507812 -6.777344 C 6.207031 -6.777344 7.0625 -5.875 7.0625 -3.757812 C 7.0625 -1.652344 6.207031 -0.734375 4.507812 -0.734375 C 2.808594 -0.734375 1.9375 -1.652344 1.9375 -3.757812 Z M 1.9375 -3.757812 "/></g></g></g><g fill="#ffffff" fill-opacity="1"><g transform="translate(116.837209, 137.113654)"><g><path d="M 5.183594 -7.753906 C 3.695312 -7.753906 2.765625 -6.910156 2.300781 -5.542969 L 2.300781 -7.511719 L 1.097656 -7.511719 L 1.097656 0 L 2.300781 0 L 2.300781 -2.871094 C 2.300781 -5.453125 3.183594 -6.746094 4.851562 -6.746094 C 5.949219 -6.746094 6.65625 -6.265625 6.65625 -4.65625 L 6.65625 0 L 7.859375 0 L 7.859375 -4.792969 C 7.859375 -6.730469 7.0625 -7.753906 5.183594 -7.753906 Z M 5.183594 -7.753906 "/></g></g></g><g fill="#ffffff" fill-opacity="1"><g transform="translate(125.641156, 137.113654)"><g><path d="M 0.929688 -8.746094 L 2.480469 -8.746094 L 2.480469 -9.992188 L 0.929688 -9.992188 Z M 1.097656 0 L 2.300781 0 L 2.300781 -7.511719 L 1.097656 -7.511719 Z M 1.097656 0 "/></g></g></g><g fill="#ffffff" fill-opacity="1"><g transform="translate(129.051556, 137.113654)"><g><path d="M 3.546875 0 L 5.320312 0 L 5.320312 -0.976562 L 2.929688 -0.976562 L 2.929688 -6.566406 L 5.410156 -6.566406 L 5.410156 -7.511719 L 2.929688 -7.511719 L 2.929688 -9.179688 L 2.285156 -9.179688 L 1.832031 -7.617188 L 0.300781 -7.242188 L 0.300781 -6.566406 L 1.726562 -6.566406 L 1.726562 -1.757812 C 1.726562 -0.554688 2.105469 0 3.546875 0 Z M 3.546875 0 "/></g></g></g><g fill="#ffffff" fill-opacity="1"><g transform="translate(134.925859, 137.113654)"><g><path d="M 4.507812 0.242188 C 7.03125 0.242188 8.277344 -1.519531 8.277344 -3.769531 C 8.277344 -5.996094 7.03125 -7.753906 4.507812 -7.753906 C 1.96875 -7.753906 0.722656 -6.011719 0.722656 -3.769531 C 0.722656 -1.503906 1.96875 0.242188 4.507812 0.242188 Z M 1.9375 -3.757812 C 1.9375 -5.875 2.808594 -6.777344 4.507812 -6.777344 C 6.207031 -6.777344 7.0625 -5.875 7.0625 -3.757812 C 7.0625 -1.652344 6.207031 -0.734375 4.507812 -0.734375 C 2.808594 -0.734375 1.9375 -1.652344 1.9375 -3.757812 Z M 1.9375 -3.757812 "/></g></g></g><g fill="#ffffff" fill-opacity="1"><g transform="translate(143.925113, 137.113654)"><g><path d="M 5.046875 -7.617188 C 3.621094 -7.617188 2.75 -6.777344 2.300781 -5.53125 L 2.300781 -7.511719 L 1.097656 -7.511719 L 1.097656 0 L 2.300781 0 L 2.300781 -2.765625 C 2.300781 -4.882812 2.78125 -6.507812 5.003906 -6.429688 L 5.320312 -6.429688 L 5.320312 -7.617188 Z M 5.046875 -7.617188 "/></g></g></g><g fill="#ffffff" fill-opacity="1"><g transform="translate(149.709275, 137.113654)"><g><path d="M 4.492188 -0.675781 C 2.988281 -0.675781 2 -1.425781 1.910156 -3.484375 L 7.949219 -3.484375 C 7.980469 -3.667969 7.980469 -3.816406 7.980469 -4.011719 C 7.980469 -6.207031 6.703125 -7.753906 4.449219 -7.753906 C 1.953125 -7.753906 0.722656 -6.011719 0.722656 -3.769531 C 0.722656 -1.503906 1.863281 0.242188 4.449219 0.242188 C 6.941406 0.242188 7.8125 -1.171875 7.964844 -2.3125 L 6.867188 -2.3125 C 6.640625 -1.367188 5.964844 -0.675781 4.492188 -0.675781 Z M 4.460938 -6.835938 C 5.859375 -6.835938 6.746094 -6.117188 6.804688 -4.386719 L 1.9375 -4.386719 C 2.105469 -6.160156 3.035156 -6.835938 4.460938 -6.835938 Z M 4.460938 -6.835938 "/></g></g></g><g fill="#ffffff" fill-opacity="1"><g transform="translate(158.362979, 137.113654)"><g><path d="M 0.570312 -2.507812 C 0.601562 -0.929688 1.59375 0.242188 4.042969 0.242188 C 6.039062 0.242188 7.105469 -0.511719 7.105469 -2.042969 C 7.105469 -3.277344 6.476562 -4.011719 4.75 -4.265625 L 3.15625 -4.492188 C 2.207031 -4.628906 1.9375 -5.078125 1.9375 -5.605469 C 1.9375 -6.339844 2.464844 -6.851562 3.742188 -6.851562 C 5.125 -6.851562 5.695312 -6.144531 5.769531 -5.363281 L 6.957031 -5.363281 C 6.867188 -6.777344 5.738281 -7.769531 3.769531 -7.769531 C 1.878906 -7.769531 0.765625 -6.910156 0.765625 -5.515625 C 0.765625 -4.359375 1.503906 -3.667969 2.808594 -3.484375 L 4.554688 -3.230469 C 5.5 -3.09375 5.921875 -2.703125 5.921875 -1.984375 C 5.921875 -1.140625 5.394531 -0.675781 4.070312 -0.675781 C 2.34375 -0.675781 1.773438 -1.488281 1.683594 -2.507812 Z M 0.570312 -2.507812 "/></g></g></g></svg>